<?xml version="1.0" encoding="UTF-8"?>
<!--Generator: Apple Native CoreSVG 175-->
<!DOCTYPE svg
PUBLIC "-//W3C//DTD SVG 1.1//EN"
       "http://www.w3.org/Graphics/SVG/1.1/DTD/svg11.dtd">
<svg version="1.1" xmlns="http://www.w3.org/2000/svg" xmlns:xlink="http://www.w3.org/1999/xlink" width="3300" height="2200">
 <!--glyph: "uni1007D5.medium", point size: 100.0, font version: "17.1d1e1", template writer version: "65.1"-->
 <g id="Notes">
  <rect height="2200" id="artboard" style="fill:white;opacity:1" width="3300" x="0" y="0"/>
  <line style="fill:none;stroke:black;opacity:1;stroke-width:0.5;" x1="263" x2="3036" y1="292" y2="292"/>
  <text style="stroke:none;fill:black;font-family:sans-serif;font-size:13;font-weight:bold;" transform="matrix(1 0 0 1 263 322)">Weight/Scale Variations</text>
  <text style="stroke:none;fill:black;font-family:sans-serif;font-size:13;text-anchor:middle;" transform="matrix(1 0 0 1 559.711 322)">Ultralight</text>
  <text style="stroke:none;fill:black;font-family:sans-serif;font-size:13;text-anchor:middle;" transform="matrix(1 0 0 1 856.422 322)">Thin</text>
  <text style="stroke:none;fill:black;font-family:sans-serif;font-size:13;text-anchor:middle;" transform="matrix(1 0 0 1 1153.13 322)">Light</text>
  <text style="stroke:none;fill:black;font-family:sans-serif;font-size:13;text-anchor:middle;" transform="matrix(1 0 0 1 1449.84 322)">Regular</text>
  <text style="stroke:none;fill:black;font-family:sans-serif;font-size:13;text-anchor:middle;" transform="matrix(1 0 0 1 1746.56 322)">Medium</text>
  <text style="stroke:none;fill:black;font-family:sans-serif;font-size:13;text-anchor:middle;" transform="matrix(1 0 0 1 2043.27 322)">Semibold</text>
  <text style="stroke:none;fill:black;font-family:sans-serif;font-size:13;text-anchor:middle;" transform="matrix(1 0 0 1 2339.98 322)">Bold</text>
  <text style="stroke:none;fill:black;font-family:sans-serif;font-size:13;text-anchor:middle;" transform="matrix(1 0 0 1 2636.69 322)">Heavy</text>
  <text style="stroke:none;fill:black;font-family:sans-serif;font-size:13;text-anchor:middle;" transform="matrix(1 0 0 1 2933.4 322)">Black</text>
  <line style="fill:none;stroke:black;opacity:1;stroke-width:0.5;" x1="263" x2="3036" y1="1903" y2="1903"/>
  <g transform="matrix(1 0 0 1 263 1933)">
   <path d="M9.24805 0.830078Q10.8691 0.830078 12.2949 0.214844Q13.7207-0.400391 14.8096-1.49414Q15.8984-2.58789 16.5186-4.01367Q17.1387-5.43945 17.1387-7.05078Q17.1387-8.66211 16.5186-10.0879Q15.8984-11.5137 14.8047-12.6074Q13.7109-13.7012 12.2852-14.3164Q10.8594-14.9316 9.23828-14.9316Q7.62695-14.9316 6.20117-14.3164Q4.77539-13.7012 3.69141-12.6074Q2.60742-11.5137 1.9873-10.0879Q1.36719-8.66211 1.36719-7.05078Q1.36719-5.43945 1.9873-4.01367Q2.60742-2.58789 3.69629-1.49414Q4.78516-0.400391 6.21094 0.214844Q7.63672 0.830078 9.24805 0.830078ZM9.24805-0.654297Q7.91992-0.654297 6.7627-1.14746Q5.60547-1.64062 4.73145-2.51953Q3.85742-3.39844 3.36426-4.56055Q2.87109-5.72266 2.87109-7.05078Q2.87109-8.37891 3.35938-9.54102Q3.84766-10.7031 4.72168-11.582Q5.5957-12.4609 6.75293-12.9541Q7.91016-13.4473 9.23828-13.4473Q10.5762-13.4473 11.7334-12.9541Q12.8906-12.4609 13.7695-11.582Q14.6484-10.7031 15.1465-9.54102Q15.6445-8.37891 15.6445-7.05078Q15.6445-5.72266 15.1514-4.56055Q14.6582-3.39844 13.7842-2.51953Q12.9102-1.64062 11.748-1.14746Q10.5859-0.654297 9.24805-0.654297ZM5.6543-7.05078Q5.6543-6.72852 5.85938-6.52832Q6.06445-6.32812 6.40625-6.32812L8.51562-6.32812L8.51562-4.20898Q8.51562-3.88672 8.71094-3.67676Q8.90625-3.4668 9.23828-3.4668Q9.56055-3.4668 9.77051-3.67676Q9.98047-3.88672 9.98047-4.20898L9.98047-6.32812L12.0898-6.32812Q12.4219-6.32812 12.627-6.52832Q12.832-6.72852 12.832-7.05078Q12.832-7.38281 12.627-7.58789Q12.4219-7.79297 12.0898-7.79297L9.98047-7.79297L9.98047-9.90234Q9.98047-10.2344 9.77051-10.4443Q9.56055-10.6543 9.23828-10.6543Q8.90625-10.6543 8.71094-10.4443Q8.51562-10.2344 8.51562-9.90234L8.51562-7.79297L6.40625-7.79297Q6.06445-7.79297 5.85938-7.58789Q5.6543-7.38281 5.6543-7.05078Z"/>
  </g>
  <g transform="matrix(1 0 0 1 281.867 1933)">
   <path d="M11.709 2.91016Q13.75 2.91016 15.5518 2.12891Q17.3535 1.34766 18.7305-0.0292969Q20.1074-1.40625 20.8887-3.20801Q21.6699-5.00977 21.6699-7.05078Q21.6699-9.0918 20.8887-10.8936Q20.1074-12.6953 18.7305-14.0723Q17.3535-15.4492 15.5469-16.2305Q13.7402-17.0117 11.6992-17.0117Q9.6582-17.0117 7.85645-16.2305Q6.05469-15.4492 4.68262-14.0723Q3.31055-12.6953 2.5293-10.8936Q1.74805-9.0918 1.74805-7.05078Q1.74805-5.00977 2.5293-3.20801Q3.31055-1.40625 4.6875-0.0292969Q6.06445 1.34766 7.86621 2.12891Q9.66797 2.91016 11.709 2.91016ZM11.709 1.25Q9.98047 1.25 8.47656 0.605469Q6.97266-0.0390625 5.83496-1.17676Q4.69727-2.31445 4.05762-3.81836Q3.41797-5.32227 3.41797-7.05078Q3.41797-8.7793 4.05762-10.2832Q4.69727-11.7871 5.83008-12.9297Q6.96289-14.0723 8.4668-14.7119Q9.9707-15.3516 11.6992-15.3516Q13.4277-15.3516 14.9316-14.7119Q16.4355-14.0723 17.5781-12.9297Q18.7207-11.7871 19.3652-10.2832Q20.0098-8.7793 20.0098-7.05078Q20.0098-5.32227 19.3701-3.81836Q18.7305-2.31445 17.5928-1.17676Q16.4551-0.0390625 14.9463 0.605469Q13.4375 1.25 11.709 1.25ZM7.17773-7.05078Q7.17773-6.69922 7.41211-6.47461Q7.64648-6.25 8.01758-6.25L10.8887-6.25L10.8887-3.36914Q10.8887-2.99805 11.1133-2.76855Q11.3379-2.53906 11.6895-2.53906Q12.0605-2.53906 12.29-2.76855Q12.5195-2.99805 12.5195-3.36914L12.5195-6.25L15.4004-6.25Q15.7715-6.25 16.001-6.47461Q16.2305-6.69922 16.2305-7.05078Q16.2305-7.42188 16.001-7.65137Q15.7715-7.88086 15.4004-7.88086L12.5195-7.88086L12.5195-10.752Q12.5195-11.1328 12.29-11.3623Q12.0605-11.5918 11.6895-11.5918Q11.3379-11.5918 11.1133-11.3574Q10.8887-11.123 10.8887-10.752L10.8887-7.88086L8.01758-7.88086Q7.63672-7.88086 7.40723-7.65137Q7.17773-7.42188 7.17773-7.05078Z"/>
  </g>
  <g transform="matrix(1 0 0 1 305.646 1933)">
   <path d="M14.9707 5.66406Q17.0605 5.66406 18.96 5.01465Q20.8594 4.36523 22.4512 3.19336Q24.043 2.02148 25.2197 0.429688Q26.3965-1.16211 27.0459-3.06641Q27.6953-4.9707 27.6953-7.05078Q27.6953-9.14062 27.0459-11.04Q26.3965-12.9395 25.2197-14.5312Q24.043-16.123 22.4512-17.2998Q20.8594-18.4766 18.9551-19.126Q17.0508-19.7754 14.9609-19.7754Q12.8711-19.7754 10.9717-19.126Q9.07227-18.4766 7.48535-17.2998Q5.89844-16.123 4.72168-14.5312Q3.54492-12.9395 2.90039-11.04Q2.25586-9.14062 2.25586-7.05078Q2.25586-4.9707 2.90527-3.06641Q3.55469-1.16211 4.72656 0.429688Q5.89844 2.02148 7.49023 3.19336Q9.08203 4.36523 10.9814 5.01465Q12.8809 5.66406 14.9707 5.66406ZM14.9707 3.84766Q13.1641 3.84766 11.5283 3.2959Q9.89258 2.74414 8.53516 1.74805Q7.17773 0.751953 6.17676-0.610352Q5.17578-1.97266 4.62891-3.6084Q4.08203-5.24414 4.08203-7.05078Q4.08203-8.86719 4.62891-10.5029Q5.17578-12.1387 6.17188-13.501Q7.16797-14.8633 8.52539-15.8594Q9.88281-16.8555 11.5186-17.4023Q13.1543-17.9492 14.9609-17.9492Q16.7773-17.9492 18.4131-17.4023Q20.0488-16.8555 21.4111-15.8594Q22.7734-14.8633 23.7695-13.501Q24.7656-12.1387 25.3174-10.5029Q25.8691-8.86719 25.8691-7.05078Q25.8789-5.24414 25.332-3.6084Q24.7852-1.97266 23.7842-0.610352Q22.7832 0.751953 21.4209 1.74805Q20.0586 2.74414 18.4229 3.2959Q16.7871 3.84766 14.9707 3.84766ZM9.19922-7.05078Q9.19922-6.66992 9.45801-6.4209Q9.7168-6.17188 10.1172-6.17188L14.0625-6.17188L14.0625-2.2168Q14.0625-1.81641 14.3115-1.55762Q14.5605-1.29883 14.9512-1.29883Q15.3516-1.29883 15.6104-1.55273Q15.8691-1.80664 15.8691-2.2168L15.8691-6.17188L19.8242-6.17188Q20.2246-6.17188 20.4785-6.4209Q20.7324-6.66992 20.7324-7.05078Q20.7324-7.46094 20.4785-7.71484Q20.2246-7.96875 19.8242-7.96875L15.8691-7.96875L15.8691-11.9141Q15.8691-12.3242 15.6104-12.583Q15.3516-12.8418 14.9512-12.8418Q14.5605-12.8418 14.3115-12.583Q14.0625-12.3242 14.0625-11.9141L14.0625-7.96875L10.1172-7.96875Q9.70703-7.96875 9.45312-7.71484Q9.19922-7.46094 9.19922-7.05078Z"/>
  </g>
  <text style="stroke:none;fill:black;font-family:sans-serif;font-size:13;font-weight:bold;" transform="matrix(1 0 0 1 263 1953)">Design Variations</text>
  <text style="stroke:none;fill:black;font-family:sans-serif;font-size:13;" transform="matrix(1 0 0 1 263 1971)">Symbols are supported in up to nine weights and three scales.</text>
  <text style="stroke:none;fill:black;font-family:sans-serif;font-size:13;" transform="matrix(1 0 0 1 263 1989)">For optimal layout with text and other symbols, vertically align</text>
  <text style="stroke:none;fill:black;font-family:sans-serif;font-size:13;" transform="matrix(1 0 0 1 263 2007)">symbols with the adjacent text.</text>
  <line style="fill:none;stroke:#00AEEF;stroke-width:0.5;opacity:1.0;" x1="776" x2="776" y1="1919" y2="1933"/>
  <g transform="matrix(1 0 0 1 776 1933)">
   <path d="M3.31055 0.15625Q3.70117 0.15625 3.91602-0.00976562Q4.13086-0.175781 4.26758-0.585938L5.52734-4.0332L11.2891-4.0332L12.5488-0.585938Q12.6855-0.175781 12.9004-0.00976562Q13.1152 0.15625 13.4961 0.15625Q13.8867 0.15625 14.1162-0.0585938Q14.3457-0.273438 14.3457-0.644531Q14.3457-0.869141 14.2383-1.17188L9.6582-13.3691Q9.48242-13.8184 9.17969-14.043Q8.87695-14.2676 8.4082-14.2676Q7.5-14.2676 7.17773-13.3789L2.59766-1.16211Q2.49023-0.859375 2.49023-0.634766Q2.49023-0.263672 2.70996-0.0537109Q2.92969 0.15625 3.31055 0.15625ZM6.00586-5.51758L8.37891-12.0898L8.42773-12.0898L10.8008-5.51758Z"/>
  </g>
  <line style="fill:none;stroke:#00AEEF;stroke-width:0.5;opacity:1.0;" x1="793.197" x2="793.197" y1="1919" y2="1933"/>
  <text style="stroke:none;fill:black;font-family:sans-serif;font-size:13;font-weight:bold;" transform="matrix(1 0 0 1 776 1953)">Margins</text>
  <text style="stroke:none;fill:black;font-family:sans-serif;font-size:13;" transform="matrix(1 0 0 1 776 1971)">Leading and trailing margins on the left and right side of each symbol</text>
  <text style="stroke:none;fill:black;font-family:sans-serif;font-size:13;" transform="matrix(1 0 0 1 776 1989)">can be adjusted by modifying the x-location of the margin guidelines.</text>
  <text style="stroke:none;fill:black;font-family:sans-serif;font-size:13;" transform="matrix(1 0 0 1 776 2007)">Modifications are automatically applied proportionally to all</text>
  <text style="stroke:none;fill:black;font-family:sans-serif;font-size:13;" transform="matrix(1 0 0 1 776 2025)">scales and weights.</text>
  <g transform="matrix(1 0 0 1 1289 1933)">
   <path d="M2.8418 1.86523L4.54102 3.57422Q5.18555 4.22852 5.90332 4.17969Q6.62109 4.13086 7.31445 3.35938L18.0078-8.42773L17.041-9.4043L6.42578 2.27539Q6.16211 2.57812 5.89355 2.61719Q5.625 2.65625 5.27344 2.30469L4.10156 1.14258Q3.75 0.791016 3.79395 0.522461Q3.83789 0.253906 4.14062-0.0195312L15.6152-10.8203L14.6387-11.7871L3.04688-0.898438Q2.30469-0.214844 2.25098 0.498047Q2.19727 1.21094 2.8418 1.86523ZM9.25781-16.3281Q8.94531-16.0254 8.90625-15.6348Q8.86719-15.2441 9.04297-14.9512Q9.21875-14.6777 9.55566-14.541Q9.89258-14.4043 10.3809-14.5215Q11.4746-14.7754 12.5977-14.7314Q13.7207-14.6875 14.7949-13.9844L14.209-12.5293Q13.9551-11.9043 14.0674-11.4404Q14.1797-10.9766 14.5801-10.5664L16.875-8.25195Q17.2363-7.88086 17.5781-7.82227Q17.9199-7.76367 18.3398-7.8418L19.4043-8.03711L20.0684-7.36328L20.0293-6.80664Q20-6.43555 20.1221-6.12305Q20.2441-5.81055 20.6055-5.44922L21.3672-4.70703Q21.7285-4.3457 22.1533-4.33105Q22.5781-4.31641 22.9297-4.66797L25.8398-7.58789Q26.1914-7.93945 26.1816-8.35449Q26.1719-8.76953 25.8105-9.13086L25.0391-9.89258Q24.6875-10.2539 24.3799-10.3857Q24.0723-10.5176 23.7109-10.4883L23.1348-10.4395L22.4902-11.0742L22.7344-12.1973Q22.832-12.6172 22.6953-12.9834Q22.5586-13.3496 22.1191-13.7891L19.9219-15.9766Q18.6719-17.2168 17.2607-17.8369Q15.8496-18.457 14.4189-18.4814Q12.9883-18.5059 11.665-17.959Q10.3418-17.4121 9.25781-16.3281ZM10.752-15.957Q11.6602-16.6211 12.7002-16.9043Q13.7402-17.1875 14.8047-17.085Q15.8691-16.9824 16.8701-16.5137Q17.8711-16.0449 18.7012-15.2051L21.1328-12.793Q21.3086-12.6172 21.3525-12.4512Q21.3965-12.2852 21.3379-12.0312L21.0156-10.5469L22.5195-9.0625L23.5059-9.12109Q23.6914-9.13086 23.7891-9.09668Q23.8867-9.0625 24.0332-8.91602L24.6094-8.33984L22.168-5.89844L21.5918-6.47461Q21.4453-6.62109 21.4062-6.71875Q21.3672-6.81641 21.377-7.01172L21.4453-7.98828L19.9512-9.47266L18.4277-9.21875Q18.1836-9.16992 18.042-9.2041Q17.9004-9.23828 17.7148-9.41406L15.7129-11.416Q15.5176-11.5918 15.4932-11.7529Q15.4688-11.9141 15.5859-12.1875L16.4648-14.2773Q15.293-15.3711 13.8281-15.791Q12.3633-16.2109 10.8398-15.7617Q10.7227-15.7324 10.6885-15.8057Q10.6543-15.8789 10.752-15.957Z"/>
  </g>
  <text style="stroke:none;fill:black;font-family:sans-serif;font-size:13;font-weight:bold;" transform="matrix(1 0 0 1 1289 1953)">Exporting</text>
  <text style="stroke:none;fill:black;font-family:sans-serif;font-size:13;" transform="matrix(1 0 0 1 1289 1971)">Symbols should be outlined when exporting to ensure the</text>
  <text style="stroke:none;fill:black;font-family:sans-serif;font-size:13;" transform="matrix(1 0 0 1 1289 1989)">design is preserved when submitting to Xcode.</text>
  <text id="template-version" style="stroke:none;fill:black;font-family:sans-serif;font-size:13;text-anchor:end;" transform="matrix(1 0 0 1 3036 1933)">Template v.3.0</text>
  <text style="stroke:none;fill:black;font-family:sans-serif;font-size:13;text-anchor:end;" transform="matrix(1 0 0 1 3036 1951)">Requires Xcode 13 or greater</text>
  <text id="descriptive-name" style="stroke:none;fill:black;font-family:sans-serif;font-size:13;text-anchor:end;" transform="matrix(1 0 0 1 3036 1969)">Generated from key</text>
  <text style="stroke:none;fill:black;font-family:sans-serif;font-size:13;text-anchor:end;" transform="matrix(1 0 0 1 3036 1987)">Typeset at 100 points</text>
  <text style="stroke:none;fill:black;font-family:sans-serif;font-size:13;" transform="matrix(1 0 0 1 263 726)">Small</text>
  <text style="stroke:none;fill:black;font-family:sans-serif;font-size:13;" transform="matrix(1 0 0 1 263 1156)">Medium</text>
  <text style="stroke:none;fill:black;font-family:sans-serif;font-size:13;" transform="matrix(1 0 0 1 263 1586)">Large</text>
 </g>
 <g id="Guides">
  <g id="H-reference" style="fill:#27AAE1;stroke:none;" transform="matrix(1 0 0 1 339 696)">
   <path d="M0.976562 0L3.66211 0L29.3457-67.1387L30.0293-67.1387L30.0293-70.459L28.125-70.459ZM11.6699-24.4629L46.9727-24.4629L46.2402-26.709L12.4512-26.709ZM55.127 0L57.7637 0L30.6152-70.459L29.4434-70.459L29.4434-67.1387Z"/>
  </g>
  <line id="Baseline-S" style="fill:none;stroke:#27AAE1;opacity:1;stroke-width:0.5;" x1="263" x2="3036" y1="696" y2="696"/>
  <line id="Capline-S" style="fill:none;stroke:#27AAE1;opacity:1;stroke-width:0.5;" x1="263" x2="3036" y1="625.541" y2="625.541"/>
  <g id="H-reference" style="fill:#27AAE1;stroke:none;" transform="matrix(1 0 0 1 339 1126)">
   <path d="M0.976562 0L3.66211 0L29.3457-67.1387L30.0293-67.1387L30.0293-70.459L28.125-70.459ZM11.6699-24.4629L46.9727-24.4629L46.2402-26.709L12.4512-26.709ZM55.127 0L57.7637 0L30.6152-70.459L29.4434-70.459L29.4434-67.1387Z"/>
  </g>
  <line id="Baseline-M" style="fill:none;stroke:#27AAE1;opacity:1;stroke-width:0.5;" x1="263" x2="3036" y1="1126" y2="1126"/>
  <line id="Capline-M" style="fill:none;stroke:#27AAE1;opacity:1;stroke-width:0.5;" x1="263" x2="3036" y1="1055.54" y2="1055.54"/>
  <g id="H-reference" style="fill:#27AAE1;stroke:none;" transform="matrix(1 0 0 1 339 1556)">
   <path d="M0.976562 0L3.66211 0L29.3457-67.1387L30.0293-67.1387L30.0293-70.459L28.125-70.459ZM11.6699-24.4629L46.9727-24.4629L46.2402-26.709L12.4512-26.709ZM55.127 0L57.7637 0L30.6152-70.459L29.4434-70.459L29.4434-67.1387Z"/>
  </g>
  <line id="Baseline-L" style="fill:none;stroke:#27AAE1;opacity:1;stroke-width:0.5;" x1="263" x2="3036" y1="1556" y2="1556"/>
  <line id="Capline-L" style="fill:none;stroke:#27AAE1;opacity:1;stroke-width:0.5;" x1="263" x2="3036" y1="1485.54" y2="1485.54"/>
  <line id="left-margin-Regular-M" style="fill:none;stroke:#00AEEF;stroke-width:0.5;opacity:1.0;" x1="1404.73" x2="1404.73" y1="1030.79" y2="1150.12"/>
  <line id="right-margin-Regular-M" style="fill:none;stroke:#00AEEF;stroke-width:0.5;opacity:1.0;" x1="1494.95" x2="1494.95" y1="1030.79" y2="1150.12"/>
 </g>
 <g id="Symbols">
  <g id="Black-L" transform="matrix(1 0 0 1 2872.38 1556)">
   <path d="M54.6835 43.0373Q57.6104 45.5309 61.1516 45.6606Q64.6928 45.7903 67.3653 43.1165L86.8257 23.6561Q89.4788 21.0043 89.4392 17.3535Q89.3997 13.7027 86.7465 10.9937L79.0614 3.25144L91.2501-8.99437Q93.8435-11.6242 93.8617-15.3146Q93.8799-19.0049 91.2268-21.6568L80.7312-32.1743Q92.9207-38.9429 99.4428-49.3081Q105.965-59.6733 105.965-72.102Q105.965-81.4208 102.488-89.5571Q99.0108-97.6935 92.8371-103.856Q86.6633-110.018 78.5276-113.485Q70.3918-116.952 61.0147-116.952Q51.6363-116.952 43.4993-113.485Q35.3622-110.018 29.2001-103.856Q23.038-97.6935 19.561-89.5571Q16.084-81.4208 16.084-72.102Q16.084-59.1503 22.8107-48.2667Q29.5374-37.3831 41.0946-31.6859L41.0946 26.2868Q41.0946 28.3897 41.8684 30.5932Q42.6423 32.7967 44.3911 34.3094ZM61.0147 27.8097L54.6516 21.5063L54.6516-43.0914Q48.1862-44.3584 42.878-48.4771Q37.5699-52.5957 34.4413-58.7418Q31.3128-64.8878 31.3128-72.102Q31.3128-80.2733 35.318-86.9919Q39.3232-93.7105 46.082-97.6762Q52.8409-101.642 61.0147-101.642Q69.2651-101.642 75.9552-97.6768Q82.6452-93.7118 86.6394-86.9932Q90.6336-80.2746 90.6336-72.102Q90.6336-64.9099 87.3851-58.7625Q84.1365-52.6152 78.3632-48.4213Q72.5899-44.2274 64.897-42.9282L64.897-26.3071L75.8422-15.2451L64.5537-4.11749L64.5537 10.4595L71.4775 17.2445ZM61.0147-72.3529Q65.3649-72.3529 68.4285-75.4463Q71.492-78.5396 71.492-82.8315Q71.492-87.1635 68.4285-90.2264Q65.3649-93.2893 61.0147-93.2893Q56.6606-93.2893 53.6087-90.2667Q50.5568-87.244 50.5568-82.8315Q50.5568-78.5396 53.6197-75.4463Q56.6826-72.3529 61.0147-72.3529Z"/>
  </g>
  <g id="Heavy-L" transform="matrix(1 0 0 1 2576.43 1556)">
   <path d="M54.4602 42.4975Q57.1267 44.7773 60.3676 44.9068Q63.6085 45.0362 66.0668 42.5719L85.5223 23.1163Q87.9569 20.6878 87.9197 17.3442Q87.8825 14.0006 85.448 11.5335L77.2045 3.25144L89.9515-9.53414Q92.3354-11.9269 92.3398-15.3077Q92.3442-18.6885 89.9096-21.117L78.6828-32.3796Q91.0966-39.0085 97.7698-49.3271Q104.443-59.6458 104.443-72.102Q104.443-81.2625 101.024-89.2616Q97.6054-97.2607 91.5271-103.318Q85.4488-109.375 77.4528-112.782Q69.4567-116.189 60.2516-116.189Q51.0404-116.189 43.0384-112.782Q35.0363-109.375 28.9789-103.318Q22.9216-97.2607 19.5028-89.2616Q16.084-81.2625 16.084-72.102Q16.084-59.2297 22.82-48.4694Q29.5559-37.7091 41.0946-32.1796L41.0946 26.1875Q41.0946 28.146 41.8105 30.1984Q42.5264 32.2508 44.1725 33.6798ZM60.2516 28.6765L53.69 22.1655L53.69-42.4946Q46.9993-43.8775 41.6153-48.1002Q36.2313-52.3229 33.0845-58.5545Q29.9376-64.7861 29.9376-72.102Q29.9376-80.4401 34.0263-87.2932Q38.1149-94.1463 45.0082-98.1977Q51.9015-102.249 60.2516-102.249Q68.6641-102.249 75.4979-98.2007Q82.3317-94.1523 86.4024-87.2992Q90.4731-80.4461 90.4731-72.102Q90.4731-64.8219 87.2219-58.5843Q83.9707-52.3467 78.1587-48.0343Q72.3468-43.7218 64.5528-42.2549L64.5528-26.7274L75.9458-15.2451L64.0891-3.54922L64.0891 9.89126L71.5674 17.2445ZM60.2516-72.1859Q64.6836-72.1859 67.8156-75.3433Q70.9476-78.5006 70.9476-82.888Q70.9476-87.3023 67.8156-90.4313Q64.6836-93.5603 60.2516-93.5603Q55.8015-93.5603 52.6904-90.4715Q49.5793-87.3827 49.5793-82.888Q49.5793-78.5006 52.7083-75.3433Q55.8373-72.1859 60.2516-72.1859Z"/>
  </g>
  <g id="Bold-L" transform="matrix(1 0 0 1 2280.75 1556)">
   <path d="M54.1586 41.7671Q56.4762 43.7616 59.3078 43.8865Q62.1394 44.0114 64.3033 41.8333L83.7507 22.3859Q85.8918 20.259 85.8587 17.3324Q85.8256 14.4058 83.6845 12.264L74.6869 3.25144L88.188-10.2646Q90.2857-12.3403 90.2747-15.3Q90.2636-18.2596 88.1225-20.3865L75.8935-32.6667Q88.6273-39.1048 95.5026-49.3599Q102.378-59.6149 102.378-72.102Q102.378-81.0481 99.0386-88.8605Q95.6992-96.6728 89.7523-102.587Q83.8053-108.501 76.0001-111.829Q68.1948-115.157 59.2195-115.157Q50.23-115.157 42.4105-111.829Q34.5911-108.501 28.6768-102.587Q22.7626-96.6728 19.4233-88.8605Q16.084-81.0481 16.084-72.102Q16.084-59.3415 22.8318-48.7479Q29.5796-38.1543 41.0946-32.8556L41.0946 26.0247Q41.0946 27.7842 41.7355 29.6345Q42.3765 31.4847 43.879 32.8029ZM59.2195 29.7871L52.3322 22.9432L52.3322-41.7492Q45.3866-43.2819 39.9178-47.634Q34.4491-51.9861 31.2832-58.3235Q28.1173-64.6609 28.1173-72.102Q28.1173-80.6526 32.3122-87.6791Q36.507-94.7057 43.5738-98.8674Q50.6405-103.029 59.2195-103.029Q67.8363-103.029 74.8553-98.8746Q81.8744-94.7199 86.0437-87.6934Q90.2129-80.6668 90.2129-72.102Q90.2129-64.7121 86.9531-58.3605Q83.6932-52.0089 77.802-47.538Q71.9107-43.067 63.9173-41.3692L63.9173-27.4106L76.0244-15.2451L63.388-2.76963L63.388 9.11167L71.6305 17.2445ZM59.2195-72.0568Q63.7257-72.0568 66.9257-75.2785Q70.1256-78.5001 70.1256-82.9771Q70.1256-87.4748 66.9257-90.6676Q63.7257-93.8605 59.2195-93.8605Q54.6706-93.8605 51.5034-90.7078Q48.3362-87.5552 48.3362-82.9771Q48.3362-78.5001 51.529-75.2785Q54.7219-72.0568 59.2195-72.0568Z"/>
  </g>
  <g id="Semibold-L" transform="matrix(1 0 0 1 1984.75 1556)">
   <path d="M53.9506 41.2635Q56.0278 43.0614 58.5772 43.1831Q61.1266 43.3049 63.0875 41.3241L82.5293 21.8823Q84.4681 19.9634 84.4378 17.3243Q84.4075 14.6852 82.4687 12.7675L72.9513 3.25144L86.9722-10.7682Q88.8726-12.6253 88.851-15.2946Q88.8293-17.964 86.8905-19.883L73.9706-32.8647Q86.9249-39.1713 93.9395-49.3825Q100.954-59.5937 100.954-72.102Q100.954-80.9003 97.6697-88.5839Q94.3852-96.2676 88.5287-102.083Q82.6723-107.899 74.9986-111.172Q67.3249-114.446 58.508-114.446Q49.6713-114.446 41.9777-111.172Q34.2842-107.899 28.4686-102.083Q22.653-96.2676 19.3685-88.5839Q16.084-80.9003 16.084-72.102Q16.084-59.4185 22.8399-48.9399Q29.5958-38.4612 41.0946-33.3216L41.0946 25.9124Q41.0946 27.5347 41.6839 29.2457Q42.2732 30.9566 43.6768 32.1984ZM58.508 30.5528L51.3962 23.4793L51.3962-41.2353Q44.2748-42.8714 38.7476-47.3126Q33.2204-51.7539 30.0414-58.1642Q26.8624-64.5745 26.8624-72.102Q26.8624-80.7991 31.1305-87.9452Q35.3986-95.0913 42.5849-99.3292Q49.7712-103.567 58.508-103.567Q67.2656-103.567 74.4124-99.3391Q81.5592-95.1112 85.7964-87.9651Q90.0335-80.8189 90.0335-72.102Q90.0335-64.6363 86.7677-58.2062Q83.5019-51.776 77.556-47.1958Q71.6101-42.6156 63.4792-40.7587L63.4792-27.8816L76.0785-15.2451L62.9047-2.23218L62.9047 8.57422L71.674 17.2445ZM58.508-71.9678Q63.0654-71.9678 66.3122-75.2338Q69.559-78.4998 69.559-83.0386Q69.559-87.5937 66.3122-90.8306Q63.0654-94.0674 58.508-94.0674Q53.891-94.0674 50.6851-90.8708Q47.4792-87.6741 47.4792-83.0386Q47.4792-78.4998 50.716-75.2338Q53.9529-71.9678 58.508-71.9678Z"/>
  </g>
  <g id="Medium-L" transform="matrix(1 0 0 1 1688.58 1556)">
   <path d="M53.793 40.8817Q55.6878 42.5304 58.0232 42.6498Q60.3587 42.7691 62.1657 40.938L81.6032 21.5005Q83.3886 19.7392 83.3605 17.3181Q83.3323 14.897 81.5469 13.1494L71.6354 3.25144L86.0504-11.15Q87.8012-12.8414 87.7715-15.2906Q87.7418-17.7399 85.9564-19.5011L72.5126-33.0148Q85.6341-39.2216 92.7544-49.3996Q99.8747-59.5775 99.8747-72.102Q99.8747-80.7882 96.6317-88.3743Q93.3888-95.9603 87.601-101.701Q81.8132-107.442 74.2392-110.674Q66.6653-113.906 57.9685-113.906Q49.2477-113.906 41.6496-110.674Q34.0514-107.442 28.3106-101.701Q22.5699-95.9603 19.3269-88.3743Q16.084-80.7882 16.084-72.102Q16.084-59.477 22.8461-49.0855Q29.6082-38.6939 41.0946-33.675L41.0946 25.8273Q41.0946 27.3456 41.6447 28.9509Q42.1949 30.5561 43.5234 31.74ZM57.9685 31.1333L50.6864 23.8859L50.6864-40.8456Q43.4318-42.56 37.8603-47.069Q32.2887-51.5779 29.0998-58.0434Q25.9108-64.509 25.9108-72.102Q25.9108-80.9101 30.2344-88.1469Q34.5581-95.3838 41.8351-99.6793Q49.1121-103.975 57.9685-103.975Q66.8329-103.975 74.0765-99.6913Q81.3202-95.4079 85.6089-88.1711Q89.8975-80.9343 89.8975-72.102Q89.8975-64.5789 86.6272-58.0892Q83.3568-51.5995 77.3695-46.9364Q71.3822-42.2733 63.147-40.2958L63.147-28.2388L76.1196-15.2451L62.5383-1.82467L62.5383 8.16671L71.707 17.2445ZM57.9685-71.9002Q62.5647-71.9002 65.847-75.1999Q69.1293-78.4995 69.1293-83.0852Q69.1293-87.6839 65.847-90.9541Q62.5647-94.2243 57.9685-94.2243Q53.2999-94.2243 50.0646-90.9943Q46.8294-87.7643 46.8294-83.0852Q46.8294-78.4995 50.0996-75.1999Q53.3698-71.9002 57.9685-71.9002Z"/>
  </g>
  <g id="Regular-L" transform="matrix(1 0 0 1 1392.57 1556)">
   <path d="M53.5873 40.3837Q55.2443 41.8379 57.3007 41.9542Q59.357 42.0704 60.9633 40.4343L80.3952 21.0025Q81.9806 19.4468 81.9552 17.3101Q81.9299 15.1733 80.3445 13.6474L69.9188 3.25144L84.848-11.648Q86.4037-13.1232 86.3635-15.2854Q86.3233-17.4475 84.7379-19.0031L70.6108-33.2106Q83.9504-39.2873 91.2086-49.4219Q98.4667-59.5565 98.4667-72.102Q98.4667-80.642 95.2779-88.1008Q92.0892-95.5595 86.3909-101.203Q80.6926-106.846 73.2487-110.024Q65.8049-113.202 57.2649-113.202Q48.6951-113.202 41.2215-110.024Q33.7479-106.846 28.1047-101.203Q22.4615-95.5595 19.2727-88.1008Q16.084-80.642 16.084-72.102Q16.084-59.5532 22.8541-49.2753Q29.6243-38.9975 41.0946-34.1359L41.0946 25.7162Q41.0946 27.0989 41.5936 28.5663Q42.0927 30.0338 43.3233 31.1421ZM57.2649 31.8906L49.7607 24.4161L49.7607-40.3374Q42.3323-42.154 36.7029-46.7511Q31.0735-51.3482 27.8716-57.8859Q24.6697-64.4236 24.6697-72.102Q24.6697-81.055 29.0657-88.4101Q33.4618-95.7652 40.8571-100.136Q48.2524-104.507 57.2649-104.507Q66.2685-104.507 73.6385-100.151Q81.0084-95.7949 85.3643-88.4398Q89.7202-81.0848 89.7202-72.102Q89.7202-64.504 86.4439-57.9366Q83.1676-51.3692 77.1263-46.598Q71.0849-41.8269 62.7137-39.692L62.7137-28.7046L76.1732-15.2451L62.0603-1.29312L62.0603 7.63517L71.7501 17.2445ZM57.2649-71.8122Q61.9116-71.8122 65.2402-75.1557Q68.5689-78.4992 68.5689-83.1459Q68.5689-87.8015 65.2402-91.1153Q61.9116-94.429 57.2649-94.429Q52.5289-94.429 49.2553-91.1555Q45.9818-87.8819 45.9818-83.1459Q45.9818-78.4992 49.2955-75.1557Q52.6093-71.8122 57.2649-71.8122Z"/>
  </g>
  <g id="Light-L" transform="matrix(1 0 0 1 1097.15 1556)">
   <path d="M53.2179 39.4807Q54.4645 40.6066 55.9975 40.6921Q57.5306 40.7775 58.747 39.5109L78.1583 20.0995Q79.3948 18.9133 79.3797 17.2998Q79.3646 15.6863 78.1282 14.5504L66.779 3.25144L82.6317-12.551Q83.8179-13.6568 83.7777-15.2854Q83.7375-16.9139 82.501-18.1001L67.0605-33.6211Q80.8927-39.4515 88.3868-49.504Q95.8809-59.5565 95.8809-72.102Q95.8809-80.3753 92.7948-87.598Q89.7086-94.8207 84.1848-100.279Q78.6609-105.738 71.4633-108.834Q64.2657-111.93 55.9925-111.93Q47.669-111.93 40.4211-108.834Q33.1733-105.738 27.7148-100.279Q22.2562-94.8207 19.1701-87.598Q16.084-80.3753 16.084-72.102Q16.084-59.7173 22.8644-49.6447Q29.6448-39.5721 41.0946-35.0183L41.0946 25.3468Q41.0946 26.4627 41.5218 27.6942Q41.9491 28.9256 42.9744 29.9108ZM55.9925 32.8961L47.7495 24.7034L47.7495-39.7833Q40.3006-41.7435 34.6712-46.433Q29.0418-51.1225 25.8502-57.732Q22.6585-64.3415 22.6585-72.102Q22.6585-81.2397 27.1469-88.759Q31.6354-96.2782 39.1948-100.752Q46.7543-105.225 55.9925-105.225Q65.1603-105.225 72.7047-100.777Q80.2491-96.3285 84.6973-88.8092Q89.1455-81.29 89.1455-72.102Q89.1455-64.4219 85.8282-57.7622Q82.5109-51.1024 76.213-46.1465Q69.9152-41.1907 60.9283-38.748L60.9283-30.2232L75.9064-15.2451L60.7674-0.267026L60.7674 6.60907L71.4833 17.2445ZM55.9925-72.2226Q60.5161-72.2226 63.7832-75.5148Q67.0503-78.807 67.0503-83.3306Q67.0503-87.9246 63.7832-91.1666Q60.5161-94.4085 55.9925-94.4085Q51.3181-94.4085 48.1163-91.2068Q44.9146-88.0051 44.9146-83.3306Q44.9146-78.807 48.1566-75.5148Q51.3985-72.2226 55.9925-72.2226Z"/>
  </g>
  <g id="Thin-L" transform="matrix(1 0 0 1 802.15 1556)">
   <path d="M52.7294 38.2865Q53.4331 38.9781 54.274 39.0228Q55.1149 39.0676 55.8156 38.2895L75.1998 18.9053Q75.9749 18.2076 75.9734 17.2862Q75.9719 16.3649 75.1968 15.7446L62.6263 3.25144L79.7003-13.7452Q80.398-14.3625 80.3578-15.2854Q80.3176-16.2082 79.5425-16.9059L62.3649-34.1639Q76.8485-39.6687 84.6548-49.6126Q92.461-59.5565 92.461-72.102Q92.461-80.0224 89.5106-86.933Q86.5602-93.8436 81.267-99.0579Q75.9739-104.272 69.102-107.26Q62.2301-110.247 54.3097-110.247Q46.3119-110.247 39.3626-107.26Q32.4133-104.272 27.1991-99.0579Q21.9848-93.8436 19.0344-86.933Q16.084-80.0224 16.084-72.102Q16.084-59.9345 22.878-50.1333Q29.6719-40.3321 41.0946-36.1854L41.0946 24.8583Q41.0946 25.6213 41.4268 26.5406Q41.7591 27.4599 42.513 28.2822ZM54.3097 34.2261L45.0896 25.0834L45.0896-39.0505Q37.6136-41.2007 31.9842-46.0123Q26.3548-50.8239 23.1767-57.5284Q19.9986-64.2329 19.9986-72.102Q19.9986-81.484 24.6092-89.2204Q29.2197-96.9568 36.9963-101.566Q44.7729-106.175 54.3097-106.175Q63.6947-106.175 71.4698-101.605Q79.2448-97.0342 83.8152-89.2978Q88.3856-81.5614 88.3856-72.102Q88.3856-64.3134 85.014-57.5315Q81.6424-50.7496 75.0052-45.5494Q68.3681-40.3493 58.567-37.4994L58.567-32.2317L75.5535-15.2451L59.0575 1.09007L59.0575 5.25197L71.1304 17.2445ZM54.3097-72.7655Q58.6705-72.7655 61.8561-75.9898Q65.0417-79.2141 65.0417-83.5749Q65.0417-88.0875 61.8561-91.2344Q58.6705-94.3814 54.3097-94.3814Q49.7167-94.3814 46.61-91.2746Q43.5032-88.1679 43.5032-83.5749Q43.5032-79.2141 46.6502-75.9898Q49.7971-72.7655 54.3097-72.7655Z"/>
  </g>
  <g id="Ultralight-L" transform="matrix(1 0 0 1 506.314 1556)">
   <path d="M52.4791 37.6748Q52.9048 38.144 53.3912 38.1679Q53.8777 38.1917 54.3142 37.6639L73.6845 18.2936Q74.2233 17.8461 74.2287 17.2793Q74.2342 16.7124 73.6954 16.3563L60.4993 3.25144L78.1989-14.3569Q78.6464-14.7239 78.6062-15.2854Q78.5659-15.8468 78.0272-16.2942L59.9599-34.4419Q74.7771-39.7799 82.7432-49.6682Q90.7094-59.5565 90.7094-72.102Q90.7094-79.8417 87.8285-86.5924Q84.9475-93.3431 79.7726-98.4323Q74.5976-103.521 67.8925-106.453Q61.1874-109.385 53.4478-109.385Q45.6168-109.385 38.8204-106.453Q32.024-103.521 26.9349-98.4323Q21.8458-93.3431 18.9649-86.5924Q16.084-79.8417 16.084-72.102Q16.084-60.0457 22.8849-50.3835Q29.6858-40.7213 41.0946-36.7832L41.0946 24.6081Q41.0946 25.1903 41.3782 25.9498Q41.6617 26.7092 42.2767 27.4481ZM53.4478 34.9073L43.7272 25.278L43.7272-38.6751Q36.2373-40.9227 30.6079-45.7968Q24.9785-50.671 21.8073-57.4242Q18.6362-64.1773 18.6362-72.102Q18.6362-81.6091 23.3093-89.4567Q27.9824-97.3043 35.8703-101.983Q43.7581-106.661 53.4478-106.661Q62.944-106.661 70.8372-102.029Q78.7305-97.3956 83.3634-89.548Q87.9963-81.7004 87.9963-72.102Q87.9963-64.2578 84.5969-57.4133Q81.1975-50.5688 74.3866-45.2436Q67.5757-39.9183 57.3575-36.8599L57.3575-33.2605L75.3728-15.2451L58.1817 1.78517L58.1817 4.55687L70.9497 17.2445ZM53.4478-73.0435Q57.7251-73.0435 60.8691-76.2331Q64.013-79.4227 64.013-83.7Q64.013-88.1709 60.8691-91.2692Q57.7251-94.3675 53.4478-94.3675Q48.8965-94.3675 45.8384-91.3094Q42.7803-88.2513 42.7803-83.7Q42.7803-79.4227 45.8786-76.2331Q48.9769-73.0435 53.4478-73.0435Z"/>
  </g>
  <g id="Black-M" transform="matrix(1 0 0 1 2885.64 1126)">
   <path d="M42.5075 25.7486Q44.9433 27.8198 47.8739 27.9163Q50.8046 28.0128 53.0065 25.8113L68.0845 10.7332Q70.2806 8.53685 70.2493 5.51532Q70.218 2.49379 68.0219 0.240026L62.4226-5.4167L71.511-14.5625Q73.6503-16.7536 73.6762-19.8065Q73.7022-22.8593 71.5061-25.0557L63.8252-32.7417Q73.143-38.0723 78.098-46.1316Q83.0531-54.1909 83.0531-63.7962Q83.0531-71.1156 80.3232-77.5053Q77.5932-83.8949 72.7517-88.734Q67.9102-93.573 61.5204-96.3Q55.1306-99.027 47.7541-99.027Q40.3778-99.027 33.9884-96.3Q27.5989-93.573 22.7598-88.734Q17.9208-83.8949 15.1908-77.5053Q12.4609-71.1156 12.4609-63.7962Q12.4609-53.716 17.6658-45.2059Q22.8707-36.6957 31.8377-32.1794L31.8377 12.465Q31.8377 14.1823 32.4773 15.9873Q33.117 17.7923 34.5322 19.0194ZM47.7541 13.0009L42.8949 8.19851L42.8949-41.7584Q38.0767-42.6598 34.0294-45.7737Q29.9821-48.8877 27.5754-53.5855Q25.1687-58.2833 25.1687-63.7962Q25.1687-70.0085 28.2125-75.1203Q31.2564-80.2322 36.3994-83.2447Q41.5424-86.2573 47.7541-86.2573Q54.029-86.2573 59.1122-83.2446Q64.1953-80.2319 67.2366-75.12Q70.2778-70.0082 70.2778-63.7962Q70.2778-58.2886 67.7577-53.591Q65.2375-48.8935 60.7632-45.7212Q56.2889-42.5489 50.3324-41.6448L50.3324-28.1614L58.6329-19.7468L50.2366-11.4751L50.2366 0.517074L55.2632 5.42432ZM47.7541-64.1896Q51.0374-64.1896 53.3437-66.5243Q55.65-68.8589 55.65-72.0852Q55.65-75.3624 53.3437-77.6688Q51.0374-79.9753 47.7541-79.9753Q44.4717-79.9753 42.1678-77.7Q39.864-75.4247 39.864-72.0852Q39.864-68.8589 42.1704-66.5243Q44.4769-64.1896 47.7541-64.1896Z"/>
  </g>
  <g id="Heavy-M" transform="matrix(1 0 0 1 2589.56 1126)">
   <path d="M42.3233 25.3043Q44.5424 27.1967 47.2278 27.2958Q49.9132 27.395 51.9415 25.3641L67.0168 10.2889Q69.0314 8.27672 69.0015 5.50721Q68.9715 2.7377 66.9569 0.68439L60.897-5.4167L70.446-15.0069Q72.4145-17.0003 72.427-19.7997Q72.4395-22.5992 70.4249-24.6113L62.1504-32.9045Q71.6419-38.1213 76.7229-46.1426Q81.8038-54.1639 81.8038-63.7962Q81.8038-70.9856 79.1214-77.2627Q76.4389-83.5399 71.6746-88.2936Q66.9104-93.0473 60.6344-95.7229Q54.3585-98.3984 47.1255-98.3984Q39.89-98.3984 33.6116-95.7229Q27.3333-93.0473 22.5796-88.2936Q17.8259-83.5399 15.1434-77.2627Q12.4609-70.9856 12.4609-63.7962Q12.4609-53.7784 17.6739-45.3699Q22.8869-36.9614 31.8377-32.5806L31.8377 12.4021Q31.8377 14.0027 32.4273 15.6818Q33.0169 17.3609 34.3507 18.5176ZM47.1255 13.7555L42.1403 8.81641L42.1403-41.226Q37.1038-42.2275 32.9824-45.4347Q28.861-48.6419 26.4355-53.4167Q24.0099-58.1915 24.0099-63.7962Q24.0099-70.1545 27.1268-75.3827Q30.2436-80.6109 35.503-83.6978Q40.7623-86.7847 47.1255-86.7847Q53.5437-86.7847 58.7513-83.699Q63.9588-80.6133 67.0664-75.3851Q70.1739-70.157 70.1739-63.7962Q70.1739-58.2102 67.655-53.4329Q65.1361-48.6556 60.6476-45.3845Q56.1591-42.1133 50.1606-41.0736L50.1606-28.4323L58.7588-19.7468L49.9017-11.0142L49.9017 0.0562141L55.3757 5.42432ZM47.1255-63.9885Q50.5001-63.9885 52.879-66.3905Q55.2579-68.7924 55.2579-72.1234Q55.2579-75.4867 52.879-77.8644Q50.5001-80.242 47.1255-80.242Q43.7435-80.242 41.3752-77.8955Q39.0069-75.549 39.0069-72.1234Q39.0069-68.7924 41.3845-66.3905Q43.7622-63.9885 47.1255-63.9885Z"/>
  </g>
  <g id="Bold-M" transform="matrix(1 0 0 1 2293.54 1126)">
   <path d="M42.1172 24.8072Q44.0939 26.4997 46.5049 26.6017Q48.9159 26.7038 50.7502 24.864L65.8224 9.79177Q67.6339 7.98573 67.6056 5.49813Q67.5772 3.01054 65.7656 1.18147L59.1905-5.4167L69.2547-15.5039Q71.0322-17.2762 71.0296-19.7922Q71.0269-22.3082 69.2154-24.1142L60.2768-33.0866Q69.9627-38.176 75.1846-46.1549Q80.4064-54.1338 80.4064-63.7962Q80.4064-70.8401 77.777-76.9914Q75.1476-83.1428 70.4698-87.801Q65.792-92.4592 59.6434-95.0772Q53.4948-97.6953 46.4223-97.6953Q39.3444-97.6953 33.1902-95.0772Q27.0361-92.4592 22.3779-87.801Q17.7198-83.1428 15.0904-76.9914Q12.4609-70.8401 12.4609-63.7962Q12.4609-53.8483 17.683-45.5534Q22.9051-37.2585 31.8377-33.0294L31.8377 12.3316Q31.8377 13.8018 32.3713 15.3401Q32.9049 16.8783 34.1477 17.9562ZM46.4223 14.5996L41.2963 9.50763L41.2963-40.6305Q36.0155-41.7439 31.8112-45.0554Q27.6069-48.3668 25.1603-53.2278Q22.7137-58.0888 22.7137-63.7962Q22.7137-70.3178 25.9122-75.6761Q29.1107-81.0344 34.5002-84.2046Q39.8896-87.3747 46.4223-87.3747Q53.0008-87.3747 58.3475-84.2073Q63.6943-81.04 66.876-75.6817Q70.0576-70.3234 70.0576-63.7962Q70.0576-58.1225 67.5401-53.256Q65.0226-48.3896 60.5183-45.0078Q56.014-41.6261 49.9684-40.4347L49.9684-28.7352L58.8997-19.7468L49.527-10.4987L49.527-0.459324L55.5015 5.42432ZM46.4223-63.7637Q49.8991-63.7637 52.3592-66.2408Q54.8193-68.7179 54.8193-72.1662Q54.8193-75.6257 52.3592-78.0831Q49.8991-80.5404 46.4223-80.5404Q42.929-80.5404 40.4885-78.1142Q38.0481-75.688 38.0481-72.1662Q38.0481-68.7179 40.5054-66.2408Q42.9627-63.7637 46.4223-63.7637Z"/>
  </g>
  <g id="Semibold-M" transform="matrix(1 0 0 1 1997.31 1126)">
   <path d="M41.9751 24.4645Q43.7847 26.0191 46.0065 26.1232Q48.2284 26.2273 49.9289 24.5192L64.999 9.44908Q66.6706 7.78512 66.6432 5.49188Q66.6159 3.19863 64.9443 1.52416L58.014-5.4167L68.4334-15.8466Q70.0792-17.4664 70.0662-19.787Q70.0532-22.1076 68.3816-23.7715L58.9851-33.2122Q68.8051-38.2138 74.124-46.1634Q79.443-54.113 79.443-63.7962Q79.443-70.7398 76.8502-76.8044Q74.2574-82.869 69.6391-87.4614Q65.0209-92.0537 58.9601-94.6321Q52.8993-97.2105 45.9375-97.2105Q38.9682-97.2105 32.8997-94.6321Q26.8313-92.0537 22.2389-87.4614Q17.6466-82.869 15.0538-76.8044Q12.4609-70.7398 12.4609-63.7962Q12.4609-53.8964 17.6893-45.6799Q22.9176-37.4634 31.8377-33.3388L31.8377 12.2831Q31.8377 13.6634 32.3327 15.1045Q32.8277 16.5455 34.0077 17.5692ZM45.9375 15.1815L40.7144 9.98414L40.7144-40.2199Q35.2653-41.4106 31.0038-44.7939Q26.7423-48.1773 24.2812-53.0976Q21.8201-58.0179 21.8201-63.7962Q21.8201-70.4305 25.0749-75.8784Q28.3297-81.3264 33.8089-84.5539Q39.288-87.7814 45.9375-87.7814Q52.6265-87.7814 58.0692-84.5578Q63.5119-81.3341 66.7447-75.8861Q69.9775-70.4381 69.9775-63.7962Q69.9775-58.0621 67.4609-53.1341Q64.9444-48.2061 60.4291-44.7482Q55.9139-41.2902 49.8359-39.9943L49.8359-28.9441L58.9969-19.7468L49.2687-10.1433L49.2687-0.814733L55.5883 5.42432ZM45.9375-63.6086Q49.4847-63.6086 52.0008-66.1376Q54.5169-68.6666 54.5169-72.1956Q54.5169-75.7216 52.0008-78.2339Q49.4847-80.7461 45.9375-80.7461Q42.3674-80.7461 39.8772-78.265Q37.3871-75.7839 37.3871-72.1956Q37.3871-68.6666 39.8993-66.1376Q42.4116-63.6086 45.9375-63.6086Z"/>
  </g>
  <g id="Medium-M" transform="matrix(1 0 0 1 1700.97 1126)">
   <path d="M41.8674 24.2047Q43.5503 25.6548 45.6287 25.7604Q47.7071 25.866 49.3061 24.2577L64.3746 9.18924Q65.9401 7.63302 65.9136 5.48714Q65.887 3.34126 64.3216 1.784L57.1219-5.4167L67.8106-16.1065Q69.3566-17.6107 69.3357-19.7831Q69.3148-21.9555 67.7493-23.5117L58.0057-33.3073Q67.9273-38.2424 73.3199-46.1698Q78.7125-54.0972 78.7125-63.7962Q78.7125-70.6637 76.1475-76.6626Q73.5824-82.6614 69.0093-87.2039Q64.4363-91.7463 58.442-94.2946Q52.4478-96.8429 45.57-96.8429Q38.6829-96.8429 32.6794-94.2946Q26.6759-91.7463 22.1335-87.2039Q17.5911-82.6614 15.026-76.6626Q12.4609-70.6637 12.4609-63.7962Q12.4609-53.9329 17.694-45.7758Q22.9271-37.6187 31.8377-33.5734L31.8377 12.2462Q31.8377 13.5584 32.3034 14.9258Q32.7692 16.2933 33.9016 17.2758ZM45.57 15.6227L40.2732 10.3455L40.2732-39.9086Q34.6964-41.1578 30.3916-44.5956Q26.0868-48.0335 23.6146-52.9989Q21.1425-57.9642 21.1425-63.7962Q21.1425-70.5158 24.44-76.0318Q27.7375-81.5479 33.2847-84.8188Q38.8318-88.0898 45.57-88.0898Q52.3427-88.0898 57.8582-84.8235Q63.3737-81.5571 66.6452-76.0411Q69.9167-70.5251 69.9167-63.7962Q69.9167-58.0162 67.4009-53.0416Q64.885-48.067 60.3615-44.5513Q55.838-41.0355 49.7354-39.6603L49.7354-29.1024L59.0705-19.7468L49.0729-9.87379L49.0729-1.08422L55.654 5.42432ZM45.57-63.4911Q49.1705-63.4911 51.7291-66.0594Q54.2876-68.6277 54.2876-72.218Q54.2876-75.7943 51.7291-78.3482Q49.1705-80.9021 45.57-80.9021Q41.9417-80.9021 39.4138-78.3793Q36.8859-75.8566 36.8859-72.218Q36.8859-68.6277 39.4398-66.0594Q41.9937-63.4911 45.57-63.4911Z"/>
  </g>
  <g id="Regular-M" transform="matrix(1 0 0 1 1404.73 1126)">
   <path d="M41.7268 23.8657Q43.2445 25.1795 45.1358 25.2871Q47.0272 25.3947 48.4938 23.9167L63.5602 8.85032Q64.9873 7.43461 64.9618 5.48095Q64.9363 3.52728 63.5093 2.12292L55.9583-5.4167L66.9983-16.4454Q68.414-17.7988 68.3829-19.7779Q68.3517-21.7571 66.9247-23.1728L56.7283-33.4315Q66.7824-38.2797 72.2711-46.1782Q77.7598-54.0767 77.7598-63.7962Q77.7598-70.5645 75.2308-76.4776Q72.7019-82.3907 68.1878-86.868Q63.6737-91.3453 57.7663-93.8544Q51.8589-96.3635 45.0905-96.3635Q38.3109-96.3635 32.3921-93.8544Q26.4733-91.3453 21.9961-86.868Q17.5188-82.3907 14.9899-76.4776Q12.4609-70.5645 12.4609-63.7962Q12.4609-53.9805 17.7002-45.9009Q22.9395-37.8213 31.8377-33.8794L31.8377 12.1982Q31.8377 13.4214 32.2653 14.6928Q32.6928 15.9642 33.7632 16.893ZM45.0905 16.1982L39.6977 10.8167L39.6977-39.5026Q33.9544-40.8281 29.593-44.337Q25.2317-47.846 22.7452-52.8701Q20.2587-57.8942 20.2587-63.7962Q20.2587-70.6272 23.6119-76.2319Q26.9651-81.8367 32.601-85.1644Q38.2368-88.4921 45.0905-88.4921Q51.9725-88.4921 57.5829-85.1701Q63.1933-81.848 66.5154-76.2433Q69.8374-70.6386 69.8374-63.7962Q69.8374-57.9565 67.3225-52.921Q64.8077-47.8856 60.2734-44.2944Q55.7391-40.7033 49.6044-39.2247L49.6044-29.309L59.1666-19.7468L48.8175-9.52229L48.8175-1.43572L55.7398 5.42432ZM45.0905-63.3377Q48.7607-63.3377 51.3747-65.9573Q53.9886-68.5769 53.9886-72.2471Q53.9886-75.8891 51.3747-78.4973Q48.7607-81.1055 45.0905-81.1055Q41.3863-81.1055 38.8092-78.5285Q36.2321-75.9514 36.2321-72.2471Q36.2321-68.5769 38.8404-65.9573Q41.4486-63.3377 45.0905-63.3377Z"/>
  </g>
  <g id="Light-M" transform="matrix(1 0 0 1 1109.18 1126)">
   <path d="M41.3957 23.0562Q42.5453 24.0756 43.9675 24.1556Q45.3897 24.2356 46.5068 23.0888L61.5547 8.04076Q62.669 6.95624 62.6527 5.47175Q62.6365 3.98726 61.5222 2.93248L53.1433-5.4167L65.0112-17.2549Q66.0958-18.2772 66.0646-19.7779Q66.0335-21.2787 64.9192-22.3632L53.5453-33.7995Q64.041-38.4269 69.7412-46.2518Q75.4415-54.0767 75.4415-63.7962Q75.4415-70.3253 73.0046-76.0268Q70.5676-81.7283 66.2099-86.04Q61.8522-90.3517 56.1656-92.7872Q50.4789-95.2227 43.9498-95.2227Q37.3909-95.2227 31.6745-92.7872Q25.9582-90.3517 21.6465-86.04Q17.3348-81.7283 14.8979-76.0268Q12.4609-70.3253 12.4609-63.7962Q12.4609-54.1277 17.7094-46.2321Q22.9579-38.3365 31.8377-34.6705L31.8377 11.867Q31.8377 12.8511 32.2009 13.9109Q32.5641 14.9707 33.4504 15.7891ZM43.9498 17.0998L37.8946 11.0743L37.8946-39.0058Q32.1329-40.4601 27.7715-44.0519Q23.4102-47.6436 20.9329-52.7321Q18.4556-57.8206 18.4556-63.7962Q18.4556-70.7928 21.8916-76.5447Q25.3276-82.2966 31.1106-85.7164Q36.8937-89.1361 43.9498-89.1361Q50.979-89.1361 56.7458-85.7312Q62.5125-82.3264 65.9174-76.5745Q69.3222-70.8225 69.3222-63.7962Q69.3222-57.8829 66.7706-52.7647Q64.2189-47.6464 59.4546-43.8897Q54.6903-40.1329 48.0037-38.3783L48.0037-30.6705L58.9274-19.7468L47.6583-8.60234L47.6583-2.35567L55.5006 5.42432ZM43.9498-63.7057Q47.5096-63.7057 50.0683-66.2793Q52.627-68.8529 52.627-72.4127Q52.627-75.9995 50.0683-78.5433Q47.5096-81.0872 43.9498-81.0872Q40.3008-81.0872 37.7881-78.5745Q35.2754-76.0618 35.2754-72.4127Q35.2754-68.8529 37.8192-66.2793Q40.3631-63.7057 43.9498-63.7057Z"/>
  </g>
  <g id="Thin-M" transform="matrix(1 0 0 1 814.004 1126)">
   <path d="M40.9576 21.9855Q41.6206 22.6155 42.4223 22.659Q43.2239 22.7025 43.8787 21.9937L58.9023 6.97006Q59.6029 6.32355 59.5988 5.45958Q59.5947 4.59561 58.8941 4.00318L49.4201-5.4167L62.3832-18.3256Q63.0297-18.9098 62.9985-19.7779Q62.9674-20.646 62.2668-21.2925L49.3354-34.2862Q60.4152-38.6216 66.3953-46.3491Q72.3754-54.0767 72.3754-63.7962Q72.3754-70.009 70.0601-75.4306Q67.7449-80.8523 63.594-84.945Q59.4431-89.0377 54.0485-91.3759Q48.6539-93.714 42.4411-93.714Q36.1742-93.714 30.7255-91.3759Q25.2768-89.0377 21.1841-84.945Q17.0914-80.8523 14.7762-75.4306Q12.4609-70.009 12.4609-63.7962Q12.4609-54.3224 17.7216-46.6701Q22.9822-39.0178 31.8377-35.7169L31.8377 11.429Q31.8377 12.0967 32.1157 12.8767Q32.3937 13.6566 33.0367 14.329ZM42.4411 18.2921L35.5099 11.415L35.5099-38.3488Q29.7238-39.9734 25.3624-43.6747Q21.0011-47.3759 18.536-52.5496Q16.0708-57.7232 16.0708-63.7962Q16.0708-71.0118 19.6163-76.9584Q23.1618-82.905 29.1396-86.4464Q35.1173-89.9878 42.4411-89.9878Q49.6649-89.9878 55.6386-86.4734Q61.6122-82.9591 65.1265-77.0125Q68.6409-71.0659 68.6409-63.7962Q68.6409-57.7855 66.0405-52.5578Q63.4402-47.3301 58.3717-43.3543Q53.3033-39.3785 45.8866-37.259L45.8866-32.4712L58.611-19.7468L46.1253-7.38563L46.1253-3.57238L55.1843 5.42432ZM42.4411-64.1924Q45.8549-64.1924 48.3406-66.7052Q50.8263-69.2179 50.8263-72.6317Q50.8263-76.1455 48.3406-78.6041Q45.8549-81.0628 42.4411-81.0628Q38.865-81.0628 36.4375-78.6353Q34.01-76.2078 34.01-72.6317Q34.01-69.2179 36.4687-66.7052Q38.9273-64.1924 42.4411-64.1924Z"/>
  </g>
  <g id="Ultralight-M" transform="matrix(1 0 0 1 518.078 1126)">
   <path d="M40.7333 21.4371Q41.147 21.8677 41.6308 21.8925Q42.1146 21.9173 42.5326 21.4328L57.5438 6.42165Q58.0325 5.99949 58.0346 5.45335Q58.0367 4.90721 57.548 4.55159L47.5132-5.4167L61.0371-18.8741Q61.4592-19.2339 61.4281-19.7779Q61.3969-20.322 60.9082-20.7441L47.1792-34.5354Q58.558-38.7213 64.6815-46.399Q70.8049-54.0767 70.8049-63.7962Q70.8049-69.847 68.552-75.1253Q66.2991-80.4036 62.2541-84.3841Q58.2092-88.3646 52.9641-90.6529Q47.7191-92.9413 41.6683-92.9413Q35.551-92.9413 30.2394-90.6529Q24.9278-88.3646 20.9473-84.3841Q16.9668-80.4036 14.7139-75.1253Q12.4609-69.847 12.4609-63.7962Q12.4609-54.4221 17.7278-46.8944Q22.9947-39.3668 31.8377-36.2528L31.8377 11.2047Q31.8377 11.7103 32.0721 12.347Q32.3065 12.9836 32.8248 13.5812ZM41.6683 18.9029L34.2884 11.5895L34.2884-38.0122Q28.4899-39.7241 24.1285-43.4815Q19.7672-47.2388 17.3083-52.4561Q14.8494-57.6734 14.8494-63.7962Q14.8494-71.124 18.451-77.1703Q22.0525-83.2166 28.13-86.8203Q34.2075-90.424 41.6683-90.424Q48.9919-90.424 55.0714-86.8536Q61.151-83.2831 64.7215-77.2368Q68.2919-71.1905 68.2919-63.7962Q68.2919-57.7357 65.6666-52.4519Q63.0413-47.1681 57.8171-43.0801Q52.5928-38.9922 44.8022-36.6856L44.8022-33.3936L58.449-19.7468L45.3401-6.76244L45.3401-4.19557L55.0223 5.42432ZM41.6683-64.4417Q45.0074-64.4417 47.4557-66.9233Q49.904-69.4049 49.904-72.7439Q49.904-76.2202 47.4557-78.6353Q45.0074-81.0504 41.6683-81.0504Q38.1297-81.0504 35.7458-78.6665Q33.3619-76.2826 33.3619-72.7439Q33.3619-69.4049 35.7769-66.9233Q38.192-64.4417 41.6683-64.4417Z"/>
  </g>
  <g id="Black-S" transform="matrix(1 0 0 1 2895.85 696)">
   <path d="M33.3496 12.6465Q35.3027 14.3066 37.6465 14.3799Q39.9902 14.4531 41.748 12.6953L53.5645 0.878906Q55.3223-0.878906 55.2979-3.2959Q55.2734-5.71289 53.5156-7.51953L49.2188-11.8652L56.25-18.9453Q57.959-20.7031 57.9834-23.1445Q58.0078-25.5859 56.25-27.3438L50.3418-33.252Q57.6172-37.4512 61.4746-43.7744Q65.332-50.0977 65.332-57.6172Q65.332-63.3789 63.1836-68.4082Q61.0352-73.4375 57.2266-77.2461Q53.418-81.0547 48.3887-83.2031Q43.3594-85.3516 37.5488-85.3516Q31.7383-85.3516 26.709-83.2031Q21.6797-81.0547 17.8711-77.2461Q14.0625-73.4375 11.9141-68.4082Q9.76562-63.3789 9.76562-57.6172Q9.76562-49.707 13.8428-43.0176Q17.9199-36.3281 24.9512-32.7637L24.9512 2.14844Q24.9512 3.51562 25.4639 4.95605Q25.9766 6.39648 27.0996 7.37305ZM37.5488 2.39258L33.7402-1.36719L33.7402-40.4785Q30.0293-41.1621 26.8799-43.5791Q23.7305-45.9961 21.8506-49.6582Q19.9707-53.3203 19.9707-57.6172Q19.9707-62.4512 22.3389-66.4307Q24.707-70.4102 28.7109-72.7539Q32.7148-75.0977 37.5488-75.0977Q42.4316-75.0977 46.3867-72.7539Q50.3418-70.4102 52.71-66.4307Q55.0781-62.4512 55.0781-57.6172Q55.0781-53.3203 53.1006-49.6582Q51.123-45.9961 47.6074-43.5303Q44.0918-41.0645 39.4043-40.3809L39.4043-29.6875L45.8984-23.0957L39.4043-16.6992L39.4043-7.12891L43.2617-3.36914ZM37.5488-58.0078Q40.0879-58.0078 41.8701-59.8145Q43.6523-61.6211 43.6523-64.1113Q43.6523-66.6504 41.8701-68.4326Q40.0879-70.2148 37.5488-70.2148Q35.0098-70.2148 33.2275-68.457Q31.4453-66.6992 31.4453-64.1113Q31.4453-61.6211 33.2275-59.8145Q35.0098-58.0078 37.5488-58.0078Z"/>
  </g>
  <g id="Heavy-S" transform="matrix(1 0 0 1 2599.53 696)">
   <path d="M33.2344 12.3699Q35.0492 13.9148 37.2431 13.9938Q39.4371 14.0728 41.0912 12.4187L52.9076 0.602319Q54.5501-1.04025 54.5257-3.30166Q54.5013-5.56307 52.8587-7.24294L48.2737-11.8652L55.5931-19.2219Q57.1984-20.8529 57.2113-23.1388Q57.2241-25.4246 55.5816-27.0672L49.3161-33.3441Q56.6837-37.4742 60.6218-43.7744Q64.5599-50.0746 64.5599-57.6172Q64.5599-63.2982 62.4403-68.2584Q60.3206-73.2185 56.5581-76.9753Q52.7956-80.732 47.8355-82.8459Q42.8753-84.9597 37.157-84.9597Q31.4386-84.9597 26.4785-82.8459Q21.5183-80.732 17.7616-76.9753Q14.0049-73.2185 11.8853-68.2584Q9.76562-63.2982 9.76562-57.6172Q9.76562-49.7416 13.8485-43.1155Q17.9314-36.4895 24.9512-33.0057L24.9512 2.13691Q24.9512 3.43495 25.4293 4.79471Q25.9074 6.15447 26.9844 7.08494ZM37.157 2.9227L33.3254-0.871635L33.3254-40.0867Q29.43-40.8394 26.2172-43.3256Q23.0044-45.8117 21.1073-49.5314Q19.2101-53.2512 19.2101-57.6172Q19.2101-62.5549 21.6301-66.6151Q24.0501-70.6752 28.1347-73.0708Q32.2193-75.4664 37.157-75.4664Q42.1435-75.4664 46.185-73.0708Q50.2266-70.6752 52.6408-66.6151Q55.0551-62.5549 55.0551-57.6172Q55.0551-53.2627 53.0833-49.543Q51.1115-45.8232 47.6132-43.294Q44.1148-40.7648 39.4619-40.0006L39.4619-29.7451L46.0367-23.0957L39.266-16.4226L39.266-7.40549L43.3885-3.36914ZM37.157-57.7888Q39.7883-57.7888 41.6396-59.6589Q43.491-61.5289 43.491-64.1229Q43.491-66.7426 41.6396-68.594Q39.7883-70.4453 37.157-70.4453Q34.5257-70.4453 32.6801-68.6184Q30.8345-66.7914 30.8345-64.1229Q30.8345-61.5289 32.6859-59.6589Q34.5373-57.7888 37.157-57.7888Z"/>
  </g>
  <g id="Bold-S" transform="matrix(1 0 0 1 2303.25 696)">
   <path d="M33.1055 12.0605Q34.7656 13.4766 36.792 13.562Q38.8184 13.6475 40.3564 12.1094L52.1729 0.292969Q53.6865-1.2207 53.6621-3.30811Q53.6377-5.39551 52.124-6.93359L47.2168-11.8652L54.8584-19.5312Q56.3477-21.0205 56.3477-23.1323Q56.3477-25.2441 54.834-26.7578L48.1689-33.4473Q55.6396-37.5 59.668-43.7744Q63.6963-50.0488 63.6963-57.6172Q63.6963-63.208 61.6089-68.0908Q59.5215-72.9736 55.8105-76.6724Q52.0996-80.3711 47.2168-82.4463Q42.334-84.5215 36.7188-84.5215Q31.1035-84.5215 26.2207-82.4463Q21.3379-80.3711 17.6392-76.6724Q13.9404-72.9736 11.853-68.0908Q9.76562-63.208 9.76562-57.6172Q9.76562-49.7803 13.855-43.2251Q17.9443-36.6699 24.9512-33.2764L24.9512 2.12402Q24.9512 3.34473 25.3906 4.61426Q25.8301 5.88379 26.8555 6.7627ZM36.7188 3.51562L32.8613-0.317383L32.8613-39.6484Q28.7598-40.4785 25.4761-43.042Q22.1924-45.6055 20.2759-49.3896Q18.3594-53.1738 18.3594-57.6172Q18.3594-62.6709 20.8374-66.8213Q23.3154-70.9717 27.4902-73.4253Q31.665-75.8789 36.7188-75.8789Q41.8213-75.8789 45.9595-73.4253Q50.0977-70.9717 52.5635-66.8213Q55.0293-62.6709 55.0293-57.6172Q55.0293-53.1982 53.064-49.4141Q51.0986-45.6299 47.6196-43.0298Q44.1406-40.4297 39.5264-39.5752L39.5264-29.8096L46.1914-23.0957L39.1113-16.1133L39.1113-7.71484L43.5303-3.36914ZM36.7188-57.5439Q39.4531-57.5439 41.3818-59.4849Q43.3105-61.4258 43.3105-64.1357Q43.3105-66.8457 41.3818-68.7744Q39.4531-70.7031 36.7188-70.7031Q33.9844-70.7031 32.0679-68.7988Q30.1514-66.8945 30.1514-64.1357Q30.1514-61.4258 32.0801-59.4849Q34.0088-57.5439 36.7188-57.5439Z"/>
  </g>
  <g id="Semibold-S" transform="matrix(1 0 0 1 2006.83 696)">
   <path d="M33.0166 11.8473Q34.5701 13.1744 36.481 13.2643Q38.3918 13.3542 39.8499 11.8961L51.6663 0.0796875Q53.0911-1.34512 53.0667-3.31255Q53.0423-5.27998 51.6175-6.72031L46.4881-11.8652L54.3519-19.7445Q55.7611-21.136 55.7522-23.1279Q55.7434-25.1197 54.3186-26.5445L47.378-33.5184Q54.9198-37.5178 59.0104-43.7744Q63.1009-50.0311 63.1009-57.6172Q63.1009-63.1458 61.0357-67.9753Q58.9705-72.8048 55.2951-76.4635Q51.6197-80.1223 46.7902-82.1708Q41.9607-84.2193 36.4166-84.2193Q30.8725-84.2193 26.043-82.1708Q21.2135-80.1223 17.5547-76.4635Q13.896-72.8048 11.8308-67.9753Q9.76562-63.1458 9.76562-57.6172Q9.76562-49.8069 13.8594-43.3006Q17.9532-36.7943 24.9512-33.463L24.9512 2.11514Q24.9512 3.28252 25.364 4.48984Q25.7768 5.69717 26.7666 6.54053ZM36.4166 3.92441L32.5414 0.0647461L32.5414-39.3463Q28.2977-40.2297 24.9651-42.8465Q21.6325-45.4633 19.7027-49.2919Q17.7729-53.1205 17.7729-57.6172Q17.7729-62.7509 20.2909-66.9635Q22.8089-71.1761 27.0459-73.6697Q31.2829-76.1633 36.4166-76.1633Q41.5991-76.1633 45.804-73.6697Q50.0088-71.1761 52.5102-66.9635Q55.0115-62.7509 55.0115-57.6172Q55.0115-53.1538 53.0506-49.3252Q51.0897-45.4966 47.6241-42.8476Q44.1584-40.1986 39.5708-39.2819L39.5708-29.854L46.298-23.0957L39.0047-15.9L39.0047-7.92812L43.628-3.36914ZM36.4166-57.3751Q39.2221-57.3751 41.2041-59.3649Q43.1861-61.3547 43.1861-64.1446Q43.1861-66.9168 41.2041-68.8988Q39.2221-70.8809 36.4166-70.8809Q33.6111-70.8809 31.6458-68.9232Q29.6804-66.9656 29.6804-64.1446Q29.6804-61.3547 31.6624-59.3649Q33.6444-57.3751 36.4166-57.3751Z"/>
  </g>
  <g id="Medium-S" transform="matrix(1 0 0 1 1710.35 696)">
   <path d="M32.9492 11.6855Q34.4219 12.9453 36.2451 13.0386Q38.0684 13.1318 39.4658 11.7344L51.2822-0.0820312Q52.6396-1.43945 52.6152-3.31592Q52.5908-5.19238 51.2334-6.55859L45.9355-11.8652L53.9678-19.9062Q55.3164-21.2236 55.3008-23.1245Q55.2852-25.0254 53.9277-26.3828L46.7783-33.5723Q54.374-37.5312 58.5117-43.7744Q62.6494-50.0176 62.6494-57.6172Q62.6494-63.0986 60.6011-67.8877Q58.5527-72.6768 54.9043-76.3052Q51.2559-79.9336 46.4668-81.9619Q41.6777-83.9902 36.1875-83.9902Q30.6973-83.9902 25.9082-81.9619Q21.1191-79.9336 17.4907-76.3052Q13.8623-72.6768 11.814-67.8877Q9.76562-63.0986 9.76562-57.6172Q9.76562-49.8271 13.8628-43.3579Q17.96-36.8887 24.9512-33.6045L24.9512 2.1084Q24.9512 3.23535 25.3438 4.39551Q25.7363 5.55566 26.6992 6.37207ZM36.1875 4.23438L32.2988 0.354492L32.2988-39.1172Q27.9473-40.041 24.5776-42.6982Q21.208-45.3555 19.2681-49.2178Q17.3281-53.0801 17.3281-57.6172Q17.3281-62.8115 19.8765-67.0713Q22.4248-71.3311 26.709-73.855Q30.9932-76.3789 36.1875-76.3789Q41.4307-76.3789 45.686-73.855Q49.9414-71.3311 52.4697-67.0713Q54.998-62.8115 54.998-57.6172Q54.998-53.1201 53.0405-49.2578Q51.083-45.3955 47.6274-42.7095Q44.1719-40.0234 39.6045-39.0596L39.6045-29.8877L46.3789-23.0957L38.9238-15.7383L38.9238-8.08984L43.7021-3.36914ZM36.1875-57.2471Q39.0469-57.2471 41.0693-59.2739Q43.0918-61.3008 43.0918-64.1514Q43.0918-66.9707 41.0693-68.9932Q39.0469-71.0156 36.1875-71.0156Q33.3281-71.0156 31.3257-69.0176Q29.3232-67.0195 29.3232-64.1514Q29.3232-61.3008 31.3457-59.2739Q33.3682-57.2471 36.1875-57.2471Z"/>
  </g>
  <g id="Regular-S" transform="matrix(1 0 0 1 1413.93 696)">
   <path d="M32.8613 11.4746Q34.2285 12.6465 35.9375 12.7441Q37.6465 12.8418 38.9648 11.5234L50.7812-0.292969Q52.0508-1.5625 52.0264-3.32031Q52.002-5.07812 50.7324-6.34766L45.2148-11.8652L53.4668-20.1172Q54.7363-21.3379 54.7119-23.1201Q54.6875-24.9023 53.418-26.1719L45.9961-33.6426Q53.6621-37.5488 57.8613-43.7744Q62.0605-50 62.0605-57.6172Q62.0605-63.0371 60.0342-67.7734Q58.0078-72.5098 54.3945-76.0986Q50.7812-79.6875 46.0449-81.6895Q41.3086-83.6914 35.8887-83.6914Q30.4688-83.6914 25.7324-81.6895Q20.9961-79.6875 17.4072-76.0986Q13.8184-72.5098 11.792-67.7734Q9.76562-63.0371 9.76562-57.6172Q9.76562-49.8535 13.8672-43.4326Q17.9688-37.0117 24.9512-33.7891L24.9512 2.09961Q24.9512 3.17383 25.3174 4.27246Q25.6836 5.37109 26.6113 6.15234ZM35.8887 4.63867L31.9824 0.732422L31.9824-38.8184Q27.4902-39.7949 24.0723-42.5049Q20.6543-45.2148 18.7012-49.1211Q16.748-53.0273 16.748-57.6172Q16.748-62.8906 19.3359-67.2119Q21.9238-71.5332 26.2695-74.0967Q30.6152-76.6602 35.8887-76.6602Q41.2109-76.6602 45.5322-74.0967Q49.8535-71.5332 52.417-67.2119Q54.9805-62.8906 54.9805-57.6172Q54.9805-53.0762 53.0273-49.1699Q51.0742-45.2637 47.6318-42.5293Q44.1895-39.7949 39.6484-38.7695L39.6484-29.9316L46.4844-23.0957L38.8184-15.5273L38.8184-8.30078L43.7988-3.36914ZM35.8887-57.0801Q38.8184-57.0801 40.8936-59.1553Q42.9688-61.2305 42.9688-64.1602Q42.9688-67.041 40.8936-69.1162Q38.8184-71.1914 35.8887-71.1914Q32.959-71.1914 30.9082-69.1406Q28.8574-67.0898 28.8574-64.1602Q28.8574-61.2305 30.9326-59.1553Q33.0078-57.0801 35.8887-57.0801Z"/>
  </g>
  <g id="Light-S" transform="matrix(1 0 0 1 1118.25 696)">
   <path d="M32.5684 10.7585Q33.61 11.6699 34.904 11.7432Q36.1979 11.8164 37.207 10.791L49.0072-1.00911Q50-1.98568 49.9837-3.32845Q49.9674-4.67122 48.9746-5.63151L42.7246-11.8652L51.709-20.8333Q52.6855-21.7611 52.6611-23.1201Q52.6367-24.4792 51.6439-25.4557L43.1803-33.9681Q51.237-37.679 55.6234-43.8395Q60.0098-50 60.0098-57.6172Q60.0098-62.8255 58.0648-67.3747Q56.1198-71.9238 52.6449-75.3662Q49.1699-78.8086 44.6289-80.7454Q40.0879-82.6823 34.8796-82.6823Q29.6549-82.6823 25.0977-80.7454Q20.5404-78.8086 17.098-75.3662Q13.6556-71.9238 11.7106-67.3747Q9.76562-62.8255 9.76562-57.6172Q9.76562-49.9837 13.8753-43.7256Q17.985-37.4674 24.9512-34.4889L24.9512 1.80664Q24.9512 2.66927 25.2604 3.58073Q25.5697 4.49219 26.3346 5.17578ZM34.8796 5.4362L30.3874 0.960286L30.3874-38.3789Q25.8789-39.4694 22.4609-42.2526Q19.043-45.0358 17.098-48.999Q15.153-52.9622 15.153-57.6172Q15.153-63.0371 17.8141-67.4886Q20.4753-71.9401 24.9512-74.585Q29.4271-77.2298 34.8796-77.2298Q40.332-77.2298 44.7917-74.5931Q49.2513-71.9564 51.888-67.5049Q54.5247-63.0534 54.5247-57.6172Q54.5247-53.0111 52.5391-49.0316Q50.5534-45.0521 46.9076-42.1712Q43.2617-39.2904 38.2324-38.0208L38.2324-31.1361L46.2728-23.0957L37.793-14.7135L37.793-9.11458L43.5872-3.36914ZM34.8796-57.4056Q37.7116-57.4056 39.738-59.4401Q41.7643-61.4746 41.7643-64.3066Q41.7643-67.1387 39.738-69.1569Q37.7116-71.1751 34.8796-71.1751Q31.9987-71.1751 30.0049-69.1813Q28.0111-67.1875 28.0111-64.3066Q28.0111-61.4746 30.0293-59.4401Q32.0475-57.4056 34.8796-57.4056Z"/>
  </g>
  <g id="Thin-S" transform="matrix(1 0 0 1 822.891 696)">
   <path d="M32.1809 9.8113Q32.792 10.3783 33.537 10.4193Q34.2821 10.4602 34.8822 9.82233L46.6608-1.95628Q47.2877-2.54536 47.2822-3.33921Q47.2767-4.13306 46.6498-4.68435L39.4311-11.8652L49.3841-21.7805Q49.9732-22.3208 49.9488-23.1201Q49.9244-23.9195 49.2975-24.5086L39.4563-34.3986Q48.0295-37.8512 52.6635-43.9256Q57.2974-50 57.2974-57.6172Q57.2974-62.5457 55.4601-66.8473Q53.6227-71.1489 50.3308-74.3975Q47.0388-77.6462 42.7561-79.4969Q38.4734-81.3477 33.5449-81.3477Q28.5786-81.3477 24.2581-79.4969Q19.9376-77.6462 16.689-74.3975Q13.4403-71.1489 11.603-66.8473Q9.76562-62.5457 9.76562-57.6172Q9.76562-50.1559 13.8861-44.1131Q18.0066-38.0702 24.9512-35.4146L24.9512 1.41917Q24.9512 2.00195 25.1851 2.66586Q25.419 3.32976 25.9687 3.8842ZM33.5449 6.49099L28.2778 1.26166L28.2778-37.7977Q23.7478-39.0389 20.3298-41.9189Q16.9119-44.799 14.9776-48.8376Q13.0434-52.8761 13.0434-57.6172Q13.0434-63.2308 15.8014-67.8546Q18.5594-72.4783 23.2075-75.2308Q27.8557-77.9832 33.5449-77.9832Q39.1696-77.9832 43.8122-75.2497Q48.4548-72.5161 51.1884-67.8924Q53.922-63.2686 53.922-57.6172Q53.922-52.925 51.8933-48.8486Q49.8645-44.7722 45.9496-41.6976Q42.0347-38.623 36.3596-37.0306L36.3596-32.729L45.9929-23.0957L36.4368-13.6372L36.4368-10.1909L43.3074-3.36914ZM33.5449-57.8361Q36.2478-57.8361 38.2096-59.8168Q40.1714-61.7975 40.1714-64.5004Q40.1714-67.2678 38.2096-69.2107Q36.2478-71.1536 33.5449-71.1536Q30.7286-71.1536 28.8102-69.2351Q26.8917-67.3167 26.8917-64.5004Q26.8917-61.7975 28.8346-59.8168Q30.7775-57.8361 33.5449-57.8361Z"/>
  </g>
  <g id="Ultralight-S" transform="matrix(1 0 0 1 526.874 696)">
   <path d="M31.9824 9.32617Q32.373 9.7168 32.8369 9.74121Q33.3008 9.76562 33.6914 9.32617L45.459-2.44141Q45.8984-2.83203 45.8984-3.34473Q45.8984-3.85742 45.459-4.19922L37.7441-11.8652L48.1934-22.2656Q48.584-22.6074 48.5596-23.1201Q48.5352-23.6328 48.0957-24.0234L37.5488-34.6191Q46.3867-37.9395 51.1475-43.9697Q55.9082-50 55.9082-57.6172Q55.9082-62.4023 54.126-66.5771Q52.3438-70.752 49.1455-73.9014Q45.9473-77.0508 41.7969-78.8574Q37.6465-80.6641 32.8613-80.6641Q28.0273-80.6641 23.8281-78.8574Q19.6289-77.0508 16.4795-73.9014Q13.3301-70.752 11.5479-66.5771Q9.76562-62.4023 9.76562-57.6172Q9.76562-50.2441 13.8916-44.3115Q18.0176-38.3789 24.9512-35.8887L24.9512 1.2207Q24.9512 1.66016 25.1465 2.19727Q25.3418 2.73438 25.7812 3.22266ZM32.8613 7.03125L27.1973 1.41602L27.1973-37.5Q22.6562-38.8184 19.2383-41.748Q15.8203-44.6777 13.8916-48.7549Q11.9629-52.832 11.9629-57.6172Q11.9629-63.3301 14.7705-68.042Q17.5781-72.7539 22.3145-75.5615Q27.0508-78.3691 32.8613-78.3691Q38.5742-78.3691 43.3105-75.5859Q48.0469-72.8027 50.8301-68.0908Q53.6133-63.3789 53.6133-57.6172Q53.6133-52.8809 51.5625-48.7549Q49.5117-44.6289 45.459-41.4551Q41.4062-38.2812 35.4004-36.5234L35.4004-33.5449L45.8496-23.0957L35.7422-13.0859L35.7422-10.7422L43.1641-3.36914ZM32.8613-58.0566Q35.498-58.0566 37.4268-60.0098Q39.3555-61.9629 39.3555-64.5996Q39.3555-67.334 37.4268-69.2383Q35.498-71.1426 32.8613-71.1426Q30.0781-71.1426 28.1982-69.2627Q26.3184-67.3828 26.3184-64.5996Q26.3184-61.9629 28.2227-60.0098Q30.127-58.0566 32.8613-58.0566Z"/>
  </g>
 </g>
</svg>
