<?xml version="1.0" encoding="UTF-8"?>
<!--Generator: Apple Native CoreSVG 175-->
<!DOCTYPE svg
PUBLIC "-//W3C//DTD SVG 1.1//EN"
       "http://www.w3.org/Graphics/SVG/1.1/DTD/svg11.dtd">
<svg version="1.1" xmlns="http://www.w3.org/2000/svg" xmlns:xlink="http://www.w3.org/1999/xlink" width="3300" height="2200">
 <!--glyph: "uni10007D.medium", point size: 100.0, font version: "17.0d12e1", template writer version: "65.1"-->
 <g id="Notes">
  <rect height="2200" id="artboard" style="fill:white;opacity:1" width="3300" x="0" y="0"/>
  <line style="fill:none;stroke:black;opacity:1;stroke-width:0.5;" x1="263" x2="3036" y1="292" y2="292"/>
  <text style="stroke:none;fill:black;font-family:sans-serif;font-size:13;font-weight:bold;" transform="matrix(1 0 0 1 263 322)">Weight/Scale Variations</text>
  <text style="stroke:none;fill:black;font-family:sans-serif;font-size:13;text-anchor:middle;" transform="matrix(1 0 0 1 559.711 322)">Ultralight</text>
  <text style="stroke:none;fill:black;font-family:sans-serif;font-size:13;text-anchor:middle;" transform="matrix(1 0 0 1 856.422 322)">Thin</text>
  <text style="stroke:none;fill:black;font-family:sans-serif;font-size:13;text-anchor:middle;" transform="matrix(1 0 0 1 1153.13 322)">Light</text>
  <text style="stroke:none;fill:black;font-family:sans-serif;font-size:13;text-anchor:middle;" transform="matrix(1 0 0 1 1449.84 322)">Regular</text>
  <text style="stroke:none;fill:black;font-family:sans-serif;font-size:13;text-anchor:middle;" transform="matrix(1 0 0 1 1746.56 322)">Medium</text>
  <text style="stroke:none;fill:black;font-family:sans-serif;font-size:13;text-anchor:middle;" transform="matrix(1 0 0 1 2043.27 322)">Semibold</text>
  <text style="stroke:none;fill:black;font-family:sans-serif;font-size:13;text-anchor:middle;" transform="matrix(1 0 0 1 2339.98 322)">Bold</text>
  <text style="stroke:none;fill:black;font-family:sans-serif;font-size:13;text-anchor:middle;" transform="matrix(1 0 0 1 2636.69 322)">Heavy</text>
  <text style="stroke:none;fill:black;font-family:sans-serif;font-size:13;text-anchor:middle;" transform="matrix(1 0 0 1 2933.4 322)">Black</text>
  <line style="fill:none;stroke:black;opacity:1;stroke-width:0.5;" x1="263" x2="3036" y1="1903" y2="1903"/>
  <g transform="matrix(1 0 0 1 263 1933)">
   <path d="M9.24805 0.830078Q10.8691 0.830078 12.2949 0.214844Q13.7207-0.400391 14.8096-1.49414Q15.8984-2.58789 16.5186-4.01367Q17.1387-5.43945 17.1387-7.05078Q17.1387-8.66211 16.5186-10.0879Q15.8984-11.5137 14.8047-12.6074Q13.7109-13.7012 12.2852-14.3164Q10.8594-14.9316 9.23828-14.9316Q7.62695-14.9316 6.20117-14.3164Q4.77539-13.7012 3.69141-12.6074Q2.60742-11.5137 1.9873-10.0879Q1.36719-8.66211 1.36719-7.05078Q1.36719-5.43945 1.9873-4.01367Q2.60742-2.58789 3.69629-1.49414Q4.78516-0.400391 6.21094 0.214844Q7.63672 0.830078 9.24805 0.830078ZM9.24805-0.654297Q7.91992-0.654297 6.7627-1.14746Q5.60547-1.64062 4.73145-2.51953Q3.85742-3.39844 3.36426-4.56055Q2.87109-5.72266 2.87109-7.05078Q2.87109-8.37891 3.35938-9.54102Q3.84766-10.7031 4.72168-11.582Q5.5957-12.4609 6.75293-12.9541Q7.91016-13.4473 9.23828-13.4473Q10.5762-13.4473 11.7334-12.9541Q12.8906-12.4609 13.7695-11.582Q14.6484-10.7031 15.1465-9.54102Q15.6445-8.37891 15.6445-7.05078Q15.6445-5.72266 15.1514-4.56055Q14.6582-3.39844 13.7842-2.51953Q12.9102-1.64062 11.748-1.14746Q10.5859-0.654297 9.24805-0.654297ZM5.6543-7.05078Q5.6543-6.72852 5.85938-6.52832Q6.06445-6.32812 6.40625-6.32812L8.51562-6.32812L8.51562-4.20898Q8.51562-3.88672 8.71094-3.67676Q8.90625-3.4668 9.23828-3.4668Q9.56055-3.4668 9.77051-3.67676Q9.98047-3.88672 9.98047-4.20898L9.98047-6.32812L12.0898-6.32812Q12.4219-6.32812 12.627-6.52832Q12.832-6.72852 12.832-7.05078Q12.832-7.38281 12.627-7.58789Q12.4219-7.79297 12.0898-7.79297L9.98047-7.79297L9.98047-9.90234Q9.98047-10.2344 9.77051-10.4443Q9.56055-10.6543 9.23828-10.6543Q8.90625-10.6543 8.71094-10.4443Q8.51562-10.2344 8.51562-9.90234L8.51562-7.79297L6.40625-7.79297Q6.06445-7.79297 5.85938-7.58789Q5.6543-7.38281 5.6543-7.05078Z"/>
  </g>
  <g transform="matrix(1 0 0 1 281.867 1933)">
   <path d="M11.709 2.91016Q13.75 2.91016 15.5518 2.12891Q17.3535 1.34766 18.7305-0.0292969Q20.1074-1.40625 20.8887-3.20801Q21.6699-5.00977 21.6699-7.05078Q21.6699-9.0918 20.8887-10.8936Q20.1074-12.6953 18.7305-14.0723Q17.3535-15.4492 15.5469-16.2305Q13.7402-17.0117 11.6992-17.0117Q9.6582-17.0117 7.85645-16.2305Q6.05469-15.4492 4.68262-14.0723Q3.31055-12.6953 2.5293-10.8936Q1.74805-9.0918 1.74805-7.05078Q1.74805-5.00977 2.5293-3.20801Q3.31055-1.40625 4.6875-0.0292969Q6.06445 1.34766 7.86621 2.12891Q9.66797 2.91016 11.709 2.91016ZM11.709 1.25Q9.98047 1.25 8.47656 0.605469Q6.97266-0.0390625 5.83496-1.17676Q4.69727-2.31445 4.05762-3.81836Q3.41797-5.32227 3.41797-7.05078Q3.41797-8.7793 4.05762-10.2832Q4.69727-11.7871 5.83008-12.9297Q6.96289-14.0723 8.4668-14.7119Q9.9707-15.3516 11.6992-15.3516Q13.4277-15.3516 14.9316-14.7119Q16.4355-14.0723 17.5781-12.9297Q18.7207-11.7871 19.3652-10.2832Q20.0098-8.7793 20.0098-7.05078Q20.0098-5.32227 19.3701-3.81836Q18.7305-2.31445 17.5928-1.17676Q16.4551-0.0390625 14.9463 0.605469Q13.4375 1.25 11.709 1.25ZM7.17773-7.05078Q7.17773-6.69922 7.41211-6.47461Q7.64648-6.25 8.01758-6.25L10.8887-6.25L10.8887-3.36914Q10.8887-2.99805 11.1133-2.76855Q11.3379-2.53906 11.6895-2.53906Q12.0605-2.53906 12.29-2.76855Q12.5195-2.99805 12.5195-3.36914L12.5195-6.25L15.4004-6.25Q15.7715-6.25 16.001-6.47461Q16.2305-6.69922 16.2305-7.05078Q16.2305-7.42188 16.001-7.65137Q15.7715-7.88086 15.4004-7.88086L12.5195-7.88086L12.5195-10.752Q12.5195-11.1328 12.29-11.3623Q12.0605-11.5918 11.6895-11.5918Q11.3379-11.5918 11.1133-11.3574Q10.8887-11.123 10.8887-10.752L10.8887-7.88086L8.01758-7.88086Q7.63672-7.88086 7.40723-7.65137Q7.17773-7.42188 7.17773-7.05078Z"/>
  </g>
  <g transform="matrix(1 0 0 1 305.646 1933)">
   <path d="M14.9707 5.66406Q17.0605 5.66406 18.96 5.01465Q20.8594 4.36523 22.4512 3.19336Q24.043 2.02148 25.2197 0.429688Q26.3965-1.16211 27.0459-3.06641Q27.6953-4.9707 27.6953-7.05078Q27.6953-9.14062 27.0459-11.04Q26.3965-12.9395 25.2197-14.5312Q24.043-16.123 22.4512-17.2998Q20.8594-18.4766 18.9551-19.126Q17.0508-19.7754 14.9609-19.7754Q12.8711-19.7754 10.9717-19.126Q9.07227-18.4766 7.48535-17.2998Q5.89844-16.123 4.72168-14.5312Q3.54492-12.9395 2.90039-11.04Q2.25586-9.14062 2.25586-7.05078Q2.25586-4.9707 2.90527-3.06641Q3.55469-1.16211 4.72656 0.429688Q5.89844 2.02148 7.49023 3.19336Q9.08203 4.36523 10.9814 5.01465Q12.8809 5.66406 14.9707 5.66406ZM14.9707 3.84766Q13.1641 3.84766 11.5283 3.2959Q9.89258 2.74414 8.53516 1.74805Q7.17773 0.751953 6.17676-0.610352Q5.17578-1.97266 4.62891-3.6084Q4.08203-5.24414 4.08203-7.05078Q4.08203-8.86719 4.62891-10.5029Q5.17578-12.1387 6.17188-13.501Q7.16797-14.8633 8.52539-15.8594Q9.88281-16.8555 11.5186-17.4023Q13.1543-17.9492 14.9609-17.9492Q16.7773-17.9492 18.4131-17.4023Q20.0488-16.8555 21.4111-15.8594Q22.7734-14.8633 23.7695-13.501Q24.7656-12.1387 25.3174-10.5029Q25.8691-8.86719 25.8691-7.05078Q25.8789-5.24414 25.332-3.6084Q24.7852-1.97266 23.7842-0.610352Q22.7832 0.751953 21.4209 1.74805Q20.0586 2.74414 18.4229 3.2959Q16.7871 3.84766 14.9707 3.84766ZM9.19922-7.05078Q9.19922-6.66992 9.45801-6.4209Q9.7168-6.17188 10.1172-6.17188L14.0625-6.17188L14.0625-2.2168Q14.0625-1.81641 14.3115-1.55762Q14.5605-1.29883 14.9512-1.29883Q15.3516-1.29883 15.6104-1.55273Q15.8691-1.80664 15.8691-2.2168L15.8691-6.17188L19.8242-6.17188Q20.2246-6.17188 20.4785-6.4209Q20.7324-6.66992 20.7324-7.05078Q20.7324-7.46094 20.4785-7.71484Q20.2246-7.96875 19.8242-7.96875L15.8691-7.96875L15.8691-11.9141Q15.8691-12.3242 15.6104-12.583Q15.3516-12.8418 14.9512-12.8418Q14.5605-12.8418 14.3115-12.583Q14.0625-12.3242 14.0625-11.9141L14.0625-7.96875L10.1172-7.96875Q9.70703-7.96875 9.45312-7.71484Q9.19922-7.46094 9.19922-7.05078Z"/>
  </g>
  <text style="stroke:none;fill:black;font-family:sans-serif;font-size:13;font-weight:bold;" transform="matrix(1 0 0 1 263 1953)">Design Variations</text>
  <text style="stroke:none;fill:black;font-family:sans-serif;font-size:13;" transform="matrix(1 0 0 1 263 1971)">Symbols are supported in up to nine weights and three scales.</text>
  <text style="stroke:none;fill:black;font-family:sans-serif;font-size:13;" transform="matrix(1 0 0 1 263 1989)">For optimal layout with text and other symbols, vertically align</text>
  <text style="stroke:none;fill:black;font-family:sans-serif;font-size:13;" transform="matrix(1 0 0 1 263 2007)">symbols with the adjacent text.</text>
  <line style="fill:none;stroke:#00AEEF;stroke-width:0.5;opacity:1.0;" x1="776" x2="776" y1="1919" y2="1933"/>
  <g transform="matrix(1 0 0 1 776 1933)">
   <path d="M3.31055 0.15625Q3.70117 0.15625 3.91602-0.00976562Q4.13086-0.175781 4.26758-0.585938L5.52734-4.0332L11.2891-4.0332L12.5488-0.585938Q12.6855-0.175781 12.9004-0.00976562Q13.1152 0.15625 13.4961 0.15625Q13.8867 0.15625 14.1162-0.0585938Q14.3457-0.273438 14.3457-0.644531Q14.3457-0.869141 14.2383-1.17188L9.6582-13.3691Q9.48242-13.8184 9.17969-14.043Q8.87695-14.2676 8.4082-14.2676Q7.5-14.2676 7.17773-13.3789L2.59766-1.16211Q2.49023-0.859375 2.49023-0.634766Q2.49023-0.263672 2.70996-0.0537109Q2.92969 0.15625 3.31055 0.15625ZM6.00586-5.51758L8.37891-12.0898L8.42773-12.0898L10.8008-5.51758Z"/>
  </g>
  <line style="fill:none;stroke:#00AEEF;stroke-width:0.5;opacity:1.0;" x1="793.197" x2="793.197" y1="1919" y2="1933"/>
  <text style="stroke:none;fill:black;font-family:sans-serif;font-size:13;font-weight:bold;" transform="matrix(1 0 0 1 776 1953)">Margins</text>
  <text style="stroke:none;fill:black;font-family:sans-serif;font-size:13;" transform="matrix(1 0 0 1 776 1971)">Leading and trailing margins on the left and right side of each symbol</text>
  <text style="stroke:none;fill:black;font-family:sans-serif;font-size:13;" transform="matrix(1 0 0 1 776 1989)">can be adjusted by modifying the x-location of the margin guidelines.</text>
  <text style="stroke:none;fill:black;font-family:sans-serif;font-size:13;" transform="matrix(1 0 0 1 776 2007)">Modifications are automatically applied proportionally to all</text>
  <text style="stroke:none;fill:black;font-family:sans-serif;font-size:13;" transform="matrix(1 0 0 1 776 2025)">scales and weights.</text>
  <g transform="matrix(1 0 0 1 1289 1933)">
   <path d="M2.8418 1.86523L4.54102 3.57422Q5.18555 4.22852 5.90332 4.17969Q6.62109 4.13086 7.31445 3.35938L18.0078-8.42773L17.041-9.4043L6.42578 2.27539Q6.16211 2.57812 5.89355 2.61719Q5.625 2.65625 5.27344 2.30469L4.10156 1.14258Q3.75 0.791016 3.79395 0.522461Q3.83789 0.253906 4.14062-0.0195312L15.6152-10.8203L14.6387-11.7871L3.04688-0.898438Q2.30469-0.214844 2.25098 0.498047Q2.19727 1.21094 2.8418 1.86523ZM9.25781-16.3281Q8.94531-16.0254 8.90625-15.6348Q8.86719-15.2441 9.04297-14.9512Q9.21875-14.6777 9.55566-14.541Q9.89258-14.4043 10.3809-14.5215Q11.4746-14.7754 12.5977-14.7314Q13.7207-14.6875 14.7949-13.9844L14.209-12.5293Q13.9551-11.9043 14.0674-11.4404Q14.1797-10.9766 14.5801-10.5664L16.875-8.25195Q17.2363-7.88086 17.5781-7.82227Q17.9199-7.76367 18.3398-7.8418L19.4043-8.03711L20.0684-7.36328L20.0293-6.80664Q20-6.43555 20.1221-6.12305Q20.2441-5.81055 20.6055-5.44922L21.3672-4.70703Q21.7285-4.3457 22.1533-4.33105Q22.5781-4.31641 22.9297-4.66797L25.8398-7.58789Q26.1914-7.93945 26.1816-8.35449Q26.1719-8.76953 25.8105-9.13086L25.0391-9.89258Q24.6875-10.2539 24.3799-10.3857Q24.0723-10.5176 23.7109-10.4883L23.1348-10.4395L22.4902-11.0742L22.7344-12.1973Q22.832-12.6172 22.6953-12.9834Q22.5586-13.3496 22.1191-13.7891L19.9219-15.9766Q18.6719-17.2168 17.2607-17.8369Q15.8496-18.457 14.4189-18.4814Q12.9883-18.5059 11.665-17.959Q10.3418-17.4121 9.25781-16.3281ZM10.752-15.957Q11.6602-16.6211 12.7002-16.9043Q13.7402-17.1875 14.8047-17.085Q15.8691-16.9824 16.8701-16.5137Q17.8711-16.0449 18.7012-15.2051L21.1328-12.793Q21.3086-12.6172 21.3525-12.4512Q21.3965-12.2852 21.3379-12.0312L21.0156-10.5469L22.5195-9.0625L23.5059-9.12109Q23.6914-9.13086 23.7891-9.09668Q23.8867-9.0625 24.0332-8.91602L24.6094-8.33984L22.168-5.89844L21.5918-6.47461Q21.4453-6.62109 21.4062-6.71875Q21.3672-6.81641 21.377-7.01172L21.4453-7.98828L19.9512-9.47266L18.4277-9.21875Q18.1836-9.16992 18.042-9.2041Q17.9004-9.23828 17.7148-9.41406L15.7129-11.416Q15.5176-11.5918 15.4932-11.7529Q15.4688-11.9141 15.5859-12.1875L16.4648-14.2773Q15.293-15.3711 13.8281-15.791Q12.3633-16.2109 10.8398-15.7617Q10.7227-15.7324 10.6885-15.8057Q10.6543-15.8789 10.752-15.957Z"/>
  </g>
  <text style="stroke:none;fill:black;font-family:sans-serif;font-size:13;font-weight:bold;" transform="matrix(1 0 0 1 1289 1953)">Exporting</text>
  <text style="stroke:none;fill:black;font-family:sans-serif;font-size:13;" transform="matrix(1 0 0 1 1289 1971)">Symbols should be outlined when exporting to ensure the</text>
  <text style="stroke:none;fill:black;font-family:sans-serif;font-size:13;" transform="matrix(1 0 0 1 1289 1989)">design is preserved when submitting to Xcode.</text>
  <text id="template-version" style="stroke:none;fill:black;font-family:sans-serif;font-size:13;text-anchor:end;" transform="matrix(1 0 0 1 3036 1933)">Template v.2.0</text>
  <text style="stroke:none;fill:black;font-family:sans-serif;font-size:13;text-anchor:end;" transform="matrix(1 0 0 1 3036 1951)">Requires Xcode 13 or greater</text>
  <text id="descriptive-name" style="stroke:none;fill:black;font-family:sans-serif;font-size:13;text-anchor:end;" transform="matrix(1 0 0 1 3036 1969)">Generated from arrow.right.circle.fill</text>
  <text style="stroke:none;fill:black;font-family:sans-serif;font-size:13;text-anchor:end;" transform="matrix(1 0 0 1 3036 1987)">Typeset at 100 points</text>
  <text style="stroke:none;fill:black;font-family:sans-serif;font-size:13;" transform="matrix(1 0 0 1 263 726)">Small</text>
  <text style="stroke:none;fill:black;font-family:sans-serif;font-size:13;" transform="matrix(1 0 0 1 263 1156)">Medium</text>
  <text style="stroke:none;fill:black;font-family:sans-serif;font-size:13;" transform="matrix(1 0 0 1 263 1586)">Large</text>
 </g>
 <g id="Guides">
  <g id="H-reference" style="fill:#27AAE1;stroke:none;" transform="matrix(1 0 0 1 339 696)">
   <path d="M0.976562 0L3.66211 0L29.3457-67.1387L30.0293-67.1387L30.0293-70.459L28.125-70.459ZM11.6699-24.4629L46.9727-24.4629L46.2402-26.709L12.4512-26.709ZM55.127 0L57.7637 0L30.6152-70.459L29.4434-70.459L29.4434-67.1387Z"/>
  </g>
  <line id="Baseline-S" style="fill:none;stroke:#27AAE1;opacity:1;stroke-width:0.5;" x1="263" x2="3036" y1="696" y2="696"/>
  <line id="Capline-S" style="fill:none;stroke:#27AAE1;opacity:1;stroke-width:0.5;" x1="263" x2="3036" y1="625.541" y2="625.541"/>
  <g id="H-reference" style="fill:#27AAE1;stroke:none;" transform="matrix(1 0 0 1 339 1126)">
   <path d="M0.976562 0L3.66211 0L29.3457-67.1387L30.0293-67.1387L30.0293-70.459L28.125-70.459ZM11.6699-24.4629L46.9727-24.4629L46.2402-26.709L12.4512-26.709ZM55.127 0L57.7637 0L30.6152-70.459L29.4434-70.459L29.4434-67.1387Z"/>
  </g>
  <line id="Baseline-M" style="fill:none;stroke:#27AAE1;opacity:1;stroke-width:0.5;" x1="263" x2="3036" y1="1126" y2="1126"/>
  <line id="Capline-M" style="fill:none;stroke:#27AAE1;opacity:1;stroke-width:0.5;" x1="263" x2="3036" y1="1055.54" y2="1055.54"/>
  <g id="H-reference" style="fill:#27AAE1;stroke:none;" transform="matrix(1 0 0 1 339 1556)">
   <path d="M0.976562 0L3.66211 0L29.3457-67.1387L30.0293-67.1387L30.0293-70.459L28.125-70.459ZM11.6699-24.4629L46.9727-24.4629L46.2402-26.709L12.4512-26.709ZM55.127 0L57.7637 0L30.6152-70.459L29.4434-70.459L29.4434-67.1387Z"/>
  </g>
  <line id="Baseline-L" style="fill:none;stroke:#27AAE1;opacity:1;stroke-width:0.5;" x1="263" x2="3036" y1="1556" y2="1556"/>
  <line id="Capline-L" style="fill:none;stroke:#27AAE1;opacity:1;stroke-width:0.5;" x1="263" x2="3036" y1="1485.54" y2="1485.54"/>
  <line id="left-margin" style="fill:none;stroke:#00AEEF;stroke-width:0.5;opacity:1.0;" x1="1391.3" x2="1391.3" y1="1030.79" y2="1150.12"/>
  <line id="right-margin" style="fill:none;stroke:#00AEEF;stroke-width:0.5;opacity:1.0;" x1="1508.39" x2="1508.39" y1="1030.79" y2="1150.12"/>
 </g>
 <g id="Symbols">
  <g id="Black-L" transform="matrix(1 0 0 1 2854.05 1556)">
   <path d="M79.3457 32.8613Q90.5762 32.8613 100.757 29.3945Q110.938 25.9277 119.458 19.6777Q127.979 13.4277 134.229 4.90723Q140.479-3.61328 143.945-13.7939Q147.412-23.9746 147.412-35.2051Q147.412-46.4355 143.945-56.6162Q140.479-66.7969 134.204-75.3174Q127.93-83.8379 119.434-90.1123Q110.938-96.3867 100.732-99.8291Q90.5273-103.271 79.2969-103.271Q68.1152-103.271 57.9102-99.8291Q47.7051-96.3867 39.209-90.1123Q30.7129-83.8379 24.4385-75.3174Q18.1641-66.7969 14.7217-56.6162Q11.2793-46.4355 11.2793-35.2051Q11.2793-23.9746 14.7217-13.7939Q18.1641-3.61328 24.4385 4.90723Q30.7129 13.4277 39.2334 19.6777Q47.7539 25.9277 57.9346 29.3945Q68.1152 32.8613 79.3457 32.8613ZM114.697-35.1562Q114.697-30.6152 111.328-27.4902L88.4277-6.15234Q85.791-3.66211 82.4219-3.66211Q79.1504-3.66211 77.0752-5.83496Q75-8.00781 75-11.4746Q75-15.2344 77.5879-17.2852L84.5215-23.0469L90.2832-26.8066L77.3926-25.8789L52.5391-25.8789Q48.7793-25.8789 46.3623-28.5645Q43.9453-31.25 43.9453-35.1562Q43.9453-39.1113 46.3623-41.7969Q48.7793-44.4824 52.5391-44.4824L77.3926-44.4824L90.2344-43.5547L84.2285-47.3633L77.5879-53.0762Q75-55.3223 75-58.8867Q75-62.3535 77.0752-64.502Q79.1504-66.6504 82.4219-66.6504Q85.791-66.6504 88.4277-64.209L111.328-42.8223Q114.697-39.7461 114.697-35.1562Z"/>
  </g>
  <g id="Heavy-L" transform="matrix(1 0 0 1 2558.39 1556)">
   <path d="M78.2715 31.7871Q89.3555 31.7871 99.3652 28.3691Q109.375 24.9512 117.749 18.7988Q126.123 12.6465 132.3 4.24805Q138.477-4.15039 141.895-14.1602Q145.312-24.1699 145.312-35.2051Q145.312-46.2402 141.895-56.2744Q138.477-66.3086 132.3-74.6826Q126.123-83.0566 117.749-89.2578Q109.375-95.459 99.3408-98.8525Q89.3066-102.246 78.2227-102.246Q67.2363-102.246 57.2021-98.8525Q47.168-95.459 38.7939-89.2578Q30.4199-83.0566 24.2432-74.6826Q18.0664-66.3086 14.6729-56.2744Q11.2793-46.2402 11.2793-35.2051Q11.2793-24.1699 14.6729-14.1602Q18.0664-4.15039 24.2432 4.24805Q30.4199 12.6465 38.8184 18.7988Q47.2168 24.9512 57.2266 28.3691Q67.2363 31.7871 78.2715 31.7871ZM113.135-35.2051Q113.135-31.2988 110.205-28.5645L87.4023-6.93359Q85.1074-4.73633 82.1289-4.73633Q79.1992-4.73633 77.3438-6.68945Q75.4883-8.64258 75.4883-11.6699Q75.4883-14.9902 77.7832-16.8457L85.2539-23.4375L91.5527-27.9297L78.7109-27.0996L50.9766-27.0996Q47.6562-27.0996 45.5322-29.4434Q43.4082-31.7871 43.4082-35.1562Q43.4082-38.6719 45.5322-40.9912Q47.6562-43.3105 50.9766-43.3105L78.7109-43.3105L91.5039-42.4805L85.0586-47.0215L77.7832-53.5645Q75.4883-55.6152 75.4883-58.7402Q75.4883-61.7676 77.3438-63.6963Q79.1992-65.625 82.1289-65.625Q85.1074-65.625 87.4023-63.4766L110.205-41.7969Q113.135-39.0625 113.135-35.2051Z"/>
  </g>
  <g id="Bold-L" transform="matrix(1 0 0 1 2262.85 1556)">
   <path d="M77.0996 30.6152Q87.9395 30.6152 97.7783 27.2461Q107.617 23.877 115.869 17.8223Q124.121 11.7676 130.176 3.51562Q136.23-4.73633 139.6-14.5752Q142.969-24.4141 142.969-35.2539Q142.969-46.0938 139.6-55.9326Q136.23-65.7715 130.151-73.999Q124.072-82.2266 115.845-88.3057Q107.617-94.3848 97.7539-97.7295Q87.8906-101.074 77.0508-101.074Q66.2598-101.074 56.3965-97.7295Q46.5332-94.3848 38.3301-88.3057Q30.127-82.2266 24.0479-73.999Q17.9688-65.7715 14.624-55.9326Q11.2793-46.0938 11.2793-35.2539Q11.2793-24.4141 14.624-14.5752Q17.9688-4.73633 24.0479 3.51562Q30.127 11.7676 38.3545 17.8223Q46.582 23.877 56.4209 27.2461Q66.2598 30.6152 77.0996 30.6152ZM111.426-35.2539Q111.426-32.1289 108.936-29.7852L86.2305-7.86133Q84.3262-6.00586 81.7383-6.00586Q79.248-6.00586 77.6367-7.66602Q76.0254-9.32617 76.0254-11.9141Q76.0254-14.6973 77.9785-16.3574L86.084-23.8281L92.9199-29.1992L80.1758-28.5156L49.1699-28.5156Q46.3867-28.5156 44.5801-30.4443Q42.7734-32.373 42.7734-35.2051Q42.7734-38.1348 44.5801-40.0635Q46.3867-41.9922 49.1699-41.9922L80.1758-41.9922L92.9199-41.3086L85.9375-46.6797L77.9785-54.1504Q76.0254-55.957 76.0254-58.5449Q76.0254-61.1328 77.6367-62.793Q79.248-64.4531 81.7383-64.4531Q84.3262-64.4531 86.2305-62.6465L108.936-40.6738Q111.426-38.3301 111.426-35.2539Z"/>
  </g>
  <g id="Semibold-L" transform="matrix(1 0 0 1 1966.97 1556)">
   <path d="M76.2695 29.7852Q86.9629 29.7852 96.6797 26.4648Q106.396 23.1445 114.551 17.1631Q122.705 11.1816 128.687 3.02734Q134.668-5.12695 137.988-14.8438Q141.309-24.5605 141.309-35.2539Q141.309-45.9473 137.988-55.6641Q134.668-65.3809 128.662-73.5107Q122.656-81.6406 114.526-87.6465Q106.396-93.6523 96.6553-96.9727Q86.9141-100.293 76.2207-100.293Q65.5273-100.293 55.8105-96.9727Q46.0938-93.6523 37.9883-87.6465Q29.8828-81.6406 23.877-73.5107Q17.8711-65.3809 14.5752-55.6641Q11.2793-45.9473 11.2793-35.2539Q11.2793-24.5605 14.5996-14.8438Q17.9199-5.12695 23.9014 3.02734Q29.8828 11.1816 38.0127 17.1631Q46.1426 23.1445 55.8594 26.4648Q65.5762 29.7852 76.2695 29.7852ZM110.205-35.3027Q110.205-32.7148 108.008-30.6152L85.4004-8.49609Q83.7402-6.88477 81.4941-6.88477Q79.248-6.88477 77.8076-8.37402Q76.3672-9.86328 76.3672-12.1094Q76.3672-14.502 78.0762-16.0156L86.6211-24.1699L93.8477-30.0781L81.1523-29.4922L47.9492-29.4922Q45.459-29.4922 43.8965-31.1523Q42.334-32.8125 42.334-35.2539Q42.334-37.8418 43.9209-39.4775Q45.5078-41.1133 47.9492-41.1133L81.1523-41.1133L93.8477-40.5273L86.5234-46.4355L78.0762-54.541Q76.3672-56.2012 76.3672-58.4473Q76.3672-60.7422 77.8076-62.207Q79.248-63.6719 81.4941-63.6719Q83.7891-63.6719 85.4004-62.1094L108.008-39.8926Q110.205-37.8418 110.205-35.3027Z"/>
  </g>
  <g id="Medium-L" transform="matrix(1 0 0 1 1670.87 1556)">
   <path d="M75.6836 29.1504Q86.2305 29.1504 95.8496 25.8545Q105.469 22.5586 113.55 16.626Q121.631 10.6934 127.563 2.63672Q133.496-5.41992 136.792-15.0635Q140.088-24.707 140.088-35.2539Q140.088-45.8496 136.792-55.4688Q133.496-65.0879 127.539-73.1445Q121.582-81.2012 113.525-87.1582Q105.469-93.1152 95.8252-96.3867Q86.1816-99.6582 75.6348-99.6582Q65.0391-99.6582 55.4199-96.3867Q45.8008-93.1152 37.7441-87.1582Q29.6875-81.2012 23.7549-73.1445Q17.8223-65.0879 14.5508-55.4688Q11.2793-45.8496 11.2793-35.2539Q11.2793-24.707 14.5508-15.0635Q17.8223-5.41992 23.7549 2.63672Q29.6875 10.6934 37.7686 16.626Q45.8496 22.5586 55.4688 25.8545Q65.0879 29.1504 75.6836 29.1504ZM109.326-35.3027Q109.326-33.1055 107.373-31.25L84.8145-8.98438Q83.3496-7.51953 81.2988-7.51953Q79.3457-7.51953 78.0273-8.8623Q76.709-10.2051 76.709-12.2559Q76.709-14.3555 78.2227-15.7715L87.1094-24.3652L94.6289-30.7617L81.9824-30.2246L47.0215-30.2246Q44.8242-30.2246 43.4326-31.665Q42.041-33.1055 42.041-35.3027Q42.041-37.5488 43.457-38.9893Q44.873-40.4297 47.0215-40.4297L81.9824-40.4297L94.6289-39.8926L87.0605-46.2402L78.2227-54.834Q76.709-56.3965 76.709-58.3984Q76.709-60.4004 78.0273-61.7188Q79.3457-63.0371 81.2988-63.0371Q83.3984-63.0371 84.8145-61.7188L107.373-39.3066Q109.326-37.4512 109.326-35.3027Z"/>
  </g>
  <g id="Regular-L" transform="matrix(1 0 0 1 1374.97 1556)">
   <path d="M74.8535 28.3203Q85.3027 28.3203 94.7998 25.0732Q104.297 21.8262 112.256 15.9668Q120.215 10.1074 126.099 2.14844Q131.982-5.81055 135.229-15.332Q138.477-24.8535 138.477-35.2539Q138.477-45.7031 135.229-55.2002Q131.982-64.6973 126.099-72.6562Q120.215-80.6152 112.256-86.499Q104.297-92.3828 94.7754-95.6299Q85.2539-98.877 74.8047-98.877Q64.3555-98.877 54.8584-95.6299Q45.3613-92.3828 37.4268-86.499Q29.4922-80.6152 23.6084-72.6562Q17.7246-64.6973 14.502-55.2002Q11.2793-45.7031 11.2793-35.2539Q11.2793-24.8535 14.5264-15.332Q17.7734-5.81055 23.6328 2.14844Q29.4922 10.1074 37.4512 15.9668Q45.4102 21.8262 54.9072 25.0732Q64.4043 28.3203 74.8535 28.3203ZM108.105-35.3516Q108.105-33.6426 106.494-32.0801L83.9844-9.57031Q82.8125-8.34961 81.0547-8.34961Q79.3457-8.34961 78.1982-9.52148Q77.0508-10.6934 77.0508-12.4023Q77.0508-14.1602 78.3203-15.4297L87.6465-24.6582L95.5566-31.5918L82.959-31.1523L45.8008-31.1523Q43.9453-31.1523 42.7734-32.3242Q41.6016-33.4961 41.6016-35.3027Q41.6016-37.207 42.7979-38.3789Q43.9941-39.5508 45.8008-39.5508L82.959-39.5508L95.5566-39.0625L87.6465-45.9961L78.3203-55.2246Q77.0508-56.5918 77.0508-58.252Q77.0508-59.9609 78.1982-61.1084Q79.3457-62.2559 81.0547-62.2559Q82.8613-62.2559 83.9844-61.1328L106.494-38.5254Q108.105-36.9629 108.105-35.3516Z"/>
  </g>
  <g id="Light-L" transform="matrix(1 0 0 1 1079.18 1556)">
   <path d="M73.9258 27.3926Q84.2285 27.3926 93.6035 24.1943Q102.979 20.9961 110.815 15.2344Q118.652 9.47266 124.438 1.63574Q130.225-6.20117 133.423-15.5762Q136.621-24.9512 136.621-35.2539Q136.621-45.5566 133.423-54.9316Q130.225-64.3066 124.438-72.1436Q118.652-79.9805 110.815-85.7666Q102.979-91.5527 93.6035-94.751Q84.2285-97.9492 73.877-97.9492Q63.5742-97.9492 54.2236-94.751Q44.873-91.5527 37.0361-85.7666Q29.1992-79.9805 23.4131-72.1436Q17.627-64.3066 14.4531-54.9316Q11.2793-45.5566 11.2793-35.2539Q11.2793-24.9512 14.4775-15.5762Q17.6758-6.20117 23.4375 1.63574Q29.1992 9.47266 37.0361 15.2344Q44.873 20.9961 54.248 24.1943Q63.623 27.3926 73.9258 27.3926ZM106.885-35.3516Q106.885-34.0332 105.664-32.8613L82.373-9.57031Q81.4453-8.64258 80.0781-8.64258Q78.7598-8.64258 77.8809-9.52148Q77.002-10.4004 77.002-11.7188Q77.002-13.0371 78.0762-14.0625L89.0625-25L97.0215-32.4219L86.0352-32.0801L44.2383-32.0801Q42.7734-32.0801 41.8701-33.0078Q40.9668-33.9355 40.9668-35.3027Q40.9668-36.8164 41.8945-37.7197Q42.8223-38.623 44.2383-38.623L86.0352-38.623L97.0703-38.2324L89.0625-45.7031L78.0762-56.5918Q77.002-57.7148 77.002-58.9844Q77.002-60.3027 77.8809-61.1572Q78.7598-62.0117 80.0781-62.0117Q81.4453-62.0117 82.373-61.1328L105.664-37.793Q106.885-36.6211 106.885-35.3516Z"/>
  </g>
  <g id="Thin-L" transform="matrix(1 0 0 1 783.693 1556)">
   <path d="M72.7051 26.1719Q82.8613 26.1719 92.041 23.0469Q101.221 19.9219 108.911 14.2822Q116.602 8.64258 122.266 0.952148Q127.93-6.73828 131.055-15.9424Q134.18-25.1465 134.18-35.2539Q134.18-45.4102 131.055-54.5898Q127.93-63.7695 122.29-71.46Q116.65-79.1504 108.936-84.8145Q101.221-90.4785 92.0166-93.6035Q82.8125-96.7285 72.7051-96.7285Q62.5488-96.7285 53.3691-93.6035Q44.1895-90.4785 36.499-84.8145Q28.8086-79.1504 23.1689-71.46Q17.5293-63.7695 14.4043-54.5898Q11.2793-45.4102 11.2793-35.2539Q11.2793-25.1465 14.4043-15.9424Q17.5293-6.73828 23.1689 0.952148Q28.8086 8.64258 36.5234 14.2822Q44.2383 19.9219 53.418 23.0469Q62.5977 26.1719 72.7051 26.1719ZM105.225-35.3516Q105.225-34.5703 104.59-33.9355L80.1758-9.61914Q79.5898-8.98438 78.7598-8.98438Q77.9785-8.98438 77.4902-9.49707Q77.002-10.0098 77.002-10.7422Q77.002-11.5723 77.7344-12.2559L90.8691-25.4395L98.9746-33.4961L90.0879-33.3008L42.1387-33.3008Q41.2109-33.3008 40.6738-33.8867Q40.1367-34.4727 40.1367-35.2539Q40.1367-36.2305 40.7227-36.792Q41.3086-37.3535 42.1387-37.3535L90.0879-37.3535L99.0723-37.1094L90.8691-45.2637L77.7344-58.3984Q77.002-59.1309 77.002-59.9121Q77.002-60.6934 77.4902-61.2061Q77.9785-61.7188 78.7598-61.7188Q79.5898-61.7188 80.1758-61.084L104.59-36.7676Q105.225-36.1328 105.225-35.3516Z"/>
  </g>
  <g id="Ultralight-L" transform="matrix(1 0 0 1 487.592 1556)">
   <path d="M72.0703 25.5371Q82.1289 25.5371 91.2354 22.4609Q100.342 19.3848 107.935 13.7939Q115.527 8.20312 121.143 0.585938Q126.758-7.03125 129.858-16.1133Q132.959-25.1953 132.959-35.2539Q132.959-45.3125 129.858-54.4189Q126.758-63.5254 121.167-71.1182Q115.576-78.7109 107.959-84.3262Q100.342-89.9414 91.2354-93.0176Q82.1289-96.0938 72.0703-96.0938Q62.0605-96.0938 52.9541-93.0176Q43.8477-89.9414 36.2305-84.3262Q28.6133-78.7109 23.0225-71.1182Q17.4316-63.5254 14.3555-54.4189Q11.2793-45.3125 11.2793-35.2539Q11.2793-25.1953 14.3555-16.1133Q17.4316-7.03125 23.0225 0.585938Q28.6133 8.20312 36.2305 13.7939Q43.8477 19.3848 52.9541 22.4609Q62.0605 25.5371 72.0703 25.5371ZM104.395-35.3516Q104.395-34.8145 104.053-34.4727L79.1016-9.61914Q78.6621-9.17969 78.125-9.17969Q77.5879-9.17969 77.2705-9.52148Q76.9531-9.86328 76.9531-10.3027Q76.9531-10.791 77.5391-11.377L91.8457-25.6836L99.9512-34.082L92.1387-33.9844L41.0645-33.9844Q40.4297-33.9844 40.0635-34.375Q39.6973-34.7656 39.6973-35.2539Q39.6973-35.9863 40.0879-36.377Q40.4785-36.7676 41.0645-36.7676L92.1387-36.7676L100.049-36.5234L91.8457-45.1172L77.5391-59.375Q76.9531-59.9121 76.9531-60.4492Q76.9531-60.9375 77.2705-61.2549Q77.5879-61.5723 78.125-61.5723Q78.6133-61.5723 79.1016-61.084L104.053-36.2793Q104.395-35.8887 104.395-35.3516Z"/>
  </g>
  <g id="Black-M" transform="matrix(1 0 0 1 2871.32 1126)">
   <path d="M62.0605 18.1152Q73.0957 18.1152 82.7637 13.9648Q92.4316 9.81445 99.7559 2.46582Q107.08-4.88281 111.255-14.5264Q115.43-24.1699 115.43-35.2051Q115.43-46.2402 111.255-55.8838Q107.08-65.5273 99.7559-72.876Q92.4316-80.2246 82.7637-84.375Q73.0957-88.5254 62.0605-88.5254Q51.0742-88.5254 41.4062-84.375Q31.7383-80.2246 24.3896-72.876Q17.041-65.5273 12.8906-55.8838Q8.74023-46.2402 8.74023-35.2051Q8.74023-24.1699 12.8906-14.5264Q17.041-4.88281 24.3896 2.46582Q31.7383 9.81445 41.4062 13.9648Q51.0742 18.1152 62.0605 18.1152ZM89.7949-35.1562Q89.7949-31.1523 86.9629-28.5645L68.8965-12.0117Q66.6016-9.91211 63.8184-9.91211Q61.084-9.91211 59.3994-11.6943Q57.7148-13.4766 57.7148-16.4062Q57.7148-19.5312 59.9121-21.2402L65.3809-25.5859L69.3848-28.0273L59.9121-27.2461L41.5527-27.2461Q38.3789-27.2461 36.3525-29.541Q34.3262-31.8359 34.3262-35.1562Q34.3262-38.4766 36.3525-40.7715Q38.3789-43.0664 41.5527-43.0664L59.9121-43.0664L69.3848-42.2852L65.0879-44.7754L59.9121-49.0723Q57.7148-50.9277 57.7148-53.9062Q57.7148-56.8359 59.3994-58.6182Q61.084-60.4004 63.8184-60.4004Q66.6504-60.4004 68.8965-58.3008L86.9629-41.6992Q89.7949-39.1602 89.7949-35.1562Z"/>
  </g>
  <g id="Heavy-M" transform="matrix(1 0 0 1 2575.43 1126)">
   <path d="M61.2305 17.2852Q72.0703 17.2852 81.5918 13.1836Q91.1133 9.08203 98.3154 1.85547Q105.518-5.37109 109.644-14.8682Q113.77-24.3652 113.77-35.2051Q113.77-46.0449 109.644-55.542Q105.518-65.0391 98.3154-72.29Q91.1133-79.541 81.5918-83.6182Q72.0703-87.6953 61.2305-87.6953Q50.4395-87.6953 40.918-83.6182Q31.3965-79.541 24.1699-72.29Q16.9434-65.0391 12.8418-55.542Q8.74023-46.0449 8.74023-35.2051Q8.74023-24.3652 12.8418-14.8682Q16.9434-5.37109 24.1699 1.85547Q31.3965 9.08203 40.918 13.1836Q50.4395 17.2852 61.2305 17.2852ZM88.5742-35.2051Q88.5742-31.7871 86.0352-29.4434L68.2617-12.793Q66.2109-10.9375 63.7207-10.9375Q61.2793-10.9375 59.7412-12.5488Q58.2031-14.1602 58.2031-16.748Q58.2031-19.5312 60.1562-21.0938L65.8203-25.8789L70.3125-28.9551L60.5469-28.2715L40.332-28.2715Q37.5488-28.2715 35.7422-30.2734Q33.9355-32.2754 33.9355-35.2051Q33.9355-38.1348 35.7422-40.1367Q37.5488-42.1387 40.332-42.1387L60.5469-42.1387L70.3125-41.4551L65.5762-44.5312L60.1562-49.2676Q58.2031-50.9766 58.2031-53.6133Q58.2031-56.2012 59.7412-57.8125Q61.2793-59.4238 63.7207-59.4238Q66.2598-59.4238 68.2617-57.5684L86.0352-40.8691Q88.5742-38.5742 88.5742-35.2051Z"/>
  </g>
  <g id="Bold-M" transform="matrix(1 0 0 1 2279.65 1126)">
   <path d="M60.3027 16.3574Q70.9473 16.3574 80.2734 12.3291Q89.5996 8.30078 96.7041 1.17188Q103.809-5.95703 107.861-15.2832Q111.914-24.6094 111.914-35.2539Q111.914-45.8496 107.861-55.1758Q103.809-64.502 96.7041-71.6309Q89.5996-78.7598 80.249-82.7881Q70.8984-86.8164 60.3027-86.8164Q49.707-86.8164 40.3564-82.7881Q31.0059-78.7598 23.9014-71.6309Q16.7969-64.502 12.7686-55.1758Q8.74023-45.8496 8.74023-35.2539Q8.74023-24.6094 12.7686-15.2832Q16.7969-5.95703 23.9258 1.17188Q31.0547 8.30078 40.3809 12.3291Q49.707 16.3574 60.3027 16.3574ZM87.1094-35.2539Q87.1094-32.4707 84.9609-30.4688L67.4805-13.6719Q65.7715-12.0605 63.5742-12.0605Q61.4258-12.0605 60.0586-13.501Q58.6914-14.9414 58.6914-17.1875Q58.6914-19.5312 60.4004-20.9473L66.2598-26.2207L71.2891-29.9805L61.2305-29.3945L38.9648-29.3945Q36.5723-29.3945 35.0098-31.0791Q33.4473-32.7637 33.4473-35.2539Q33.4473-37.7441 35.0098-39.4287Q36.5723-41.1133 38.9648-41.1133L61.2305-41.1133L71.2891-40.4785L66.1133-44.2871L60.4004-49.5117Q58.6914-51.0742 58.6914-53.2715Q58.6914-55.5176 60.0586-56.9336Q61.4258-58.3496 63.5742-58.3496Q65.8203-58.3496 67.4805-56.7871L84.9609-39.9902Q87.1094-37.9883 87.1094-35.2539Z"/>
  </g>
  <g id="Semibold-M" transform="matrix(1 0 0 1 1983.6 1126)">
   <path d="M59.668 15.6738Q70.1172 15.6738 79.3457 11.6943Q88.5742 7.71484 95.6055 0.683594Q102.637-6.34766 106.616-15.5518Q110.596-24.7559 110.596-35.2539Q110.596-45.7031 106.616-54.9072Q102.637-64.1113 95.6055-71.1426Q88.5742-78.1738 79.3457-82.1777Q70.1172-86.1816 59.6191-86.1816Q49.1699-86.1816 39.9658-82.1777Q30.7617-78.1738 23.7305-71.1426Q16.6992-64.1113 12.7197-54.9072Q8.74023-45.7031 8.74023-35.2539Q8.74023-24.7559 12.7197-15.5518Q16.6992-6.34766 23.7305 0.683594Q30.7617 7.71484 39.9902 11.6943Q49.2188 15.6738 59.668 15.6738ZM86.1328-35.3027Q86.1328-33.0078 84.2285-31.2012L66.8945-14.3066Q65.4297-12.8906 63.4766-12.8906Q61.5234-12.8906 60.2783-14.1846Q59.0332-15.4785 59.0332-17.4805Q59.0332-19.5801 60.5469-20.8984L66.5039-26.4648L71.9727-30.7617L61.6699-30.1758L37.9883-30.1758Q35.8398-30.1758 34.4727-31.6406Q33.1055-33.1055 33.1055-35.3027Q33.1055-37.5 34.4727-38.9648Q35.8398-40.4297 37.9883-40.4297L61.6699-40.4297L71.9238-39.8926L66.4551-44.1406L60.5469-49.707Q59.0332-51.123 59.0332-53.0762Q59.0332-55.0781 60.2783-56.3721Q61.5234-57.666 63.4766-57.666Q65.4785-57.666 66.8945-56.2988L84.2285-39.4043Q86.1328-37.5977 86.1328-35.3027Z"/>
  </g>
  <g id="Medium-M" transform="matrix(1 0 0 1 1687.38 1126)">
   <path d="M59.1797 15.1855Q69.5312 15.1855 78.6621 11.2305Q87.793 7.27539 94.751 0.317383Q101.709-6.64062 105.664-15.7715Q109.619-24.9023 109.619-35.2539Q109.619-45.6055 105.664-54.7363Q101.709-63.8672 94.751-70.8252Q87.793-77.7832 78.6377-81.7383Q69.4824-85.6934 59.1309-85.6934Q48.7793-85.6934 39.6484-81.7383Q30.5176-77.7832 23.584-70.8252Q16.6504-63.8672 12.6953-54.7363Q8.74023-45.6055 8.74023-35.2539Q8.74023-24.9023 12.6953-15.7715Q16.6504-6.64062 23.6084 0.317383Q30.5664 7.27539 39.6973 11.2305Q48.8281 15.1855 59.1797 15.1855ZM85.3516-35.3027Q85.3516-33.3496 83.6426-31.6895L66.5039-14.7461Q65.2344-13.4766 63.3789-13.4766Q61.6211-13.4766 60.4492-14.6729Q59.2773-15.8691 59.2773-17.6758Q59.2773-19.5801 60.6445-20.8008L66.748-26.6602L72.4609-31.2988L62.0117-30.7617L37.3047-30.7617Q35.3516-30.7617 34.1064-32.0557Q32.8613-33.3496 32.8613-35.3027Q32.8613-37.3047 34.1064-38.5986Q35.3516-39.8926 37.3047-39.8926L62.0117-39.8926L72.4609-39.3555L66.6992-43.9941L60.6445-49.8535Q59.2773-51.1719 59.2773-52.9297Q59.2773-54.7363 60.4492-55.9082Q61.6211-57.0801 63.3789-57.0801Q65.2832-57.0801 66.5039-55.8594L83.6426-38.916Q85.3516-37.2559 85.3516-35.3027Z"/>
  </g>
  <g id="Regular-M" transform="matrix(1 0 0 1 1391.3 1126)">
   <path d="M58.5449 14.5508Q68.75 14.5508 77.7588 10.6445Q86.7676 6.73828 93.6523-0.146484Q100.537-7.03125 104.443-16.04Q108.35-25.0488 108.35-35.2539Q108.35-45.459 104.443-54.4678Q100.537-63.4766 93.6523-70.3613Q86.7676-77.2461 77.7344-81.1523Q68.7012-85.0586 58.4961-85.0586Q48.291-85.0586 39.2822-81.1523Q30.2734-77.2461 23.4131-70.3613Q16.5527-63.4766 12.6465-54.4678Q8.74023-45.459 8.74023-35.2539Q8.74023-25.0488 12.6465-16.04Q16.5527-7.03125 23.4375-0.146484Q30.3223 6.73828 39.3311 10.6445Q48.3398 14.5508 58.5449 14.5508ZM84.4238-35.3516Q84.4238-33.8379 82.959-32.373L66.0156-15.332Q64.9414-14.2578 63.3301-14.2578Q61.7676-14.2578 60.7178-15.332Q59.668-16.4062 59.668-17.9688Q59.668-19.5801 60.8398-20.7031L67.0898-26.8555L73.1934-31.9824L62.5-31.543L36.377-31.543Q34.7168-31.543 33.6426-32.6172Q32.5684-33.6914 32.5684-35.3516Q32.5684-37.0117 33.6426-38.0859Q34.7168-39.1602 36.377-39.1602L62.5-39.1602L73.1445-38.7207L67.0898-43.7988L60.8398-50Q59.668-51.2207 59.668-52.6855Q59.668-54.248 60.7178-55.2979Q61.7676-56.3477 63.3301-56.3477Q64.9902-56.3477 66.0156-55.3223L82.959-38.2812Q84.4238-36.8164 84.4238-35.3516Z"/>
  </g>
  <g id="Light-M" transform="matrix(1 0 0 1 1095.42 1126)">
   <path d="M57.7148 13.7207Q67.7734 13.7207 76.6357 9.8877Q85.498 6.05469 92.2607-0.708008Q99.0234-7.4707 102.856-16.333Q106.689-25.1953 106.689-35.2539Q106.689-45.3125 102.856-54.1748Q99.0234-63.0371 92.2607-69.7998Q85.498-76.5625 76.6113-80.3955Q67.7246-84.2285 57.666-84.2285Q47.6074-84.2285 38.7451-80.3955Q29.8828-76.5625 23.1445-69.7998Q16.4062-63.0371 12.5732-54.1748Q8.74023-45.3125 8.74023-35.2539Q8.74023-25.1953 12.5732-16.333Q16.4062-7.4707 23.1689-0.708008Q29.9316 6.05469 38.7939 9.8877Q47.6562 13.7207 57.7148 13.7207ZM83.3496-35.3516Q83.3496-34.1797 82.2754-33.1055L64.5508-15.3809Q63.7207-14.502 62.5-14.502Q61.2793-14.502 60.4736-15.332Q59.668-16.1621 59.668-17.334Q59.668-18.6035 60.6445-19.4824L68.3594-27.1973L74.5605-32.7637L65.2832-32.4219L35.0098-32.4219Q33.6914-32.4219 32.8613-33.252Q32.0312-34.082 32.0312-35.3516Q32.0312-36.6699 32.8613-37.5Q33.6914-38.3301 35.0098-38.3301L65.2832-38.3301L74.5117-37.9883L68.3594-43.5059L60.6445-51.2207Q59.668-52.2461 59.668-53.3691Q59.668-54.541 60.4736-55.3467Q61.2793-56.1523 62.5-56.1523Q63.7695-56.1523 64.5508-55.3223L82.2754-37.5977Q83.3496-36.5234 83.3496-35.3516Z"/>
  </g>
  <g id="Thin-M" transform="matrix(1 0 0 1 799.782 1126)">
   <path d="M56.5918 12.5977Q66.5039 12.5977 75.1709 8.88672Q83.8379 5.17578 90.4297-1.44043Q97.0215-8.05664 100.781-16.7236Q104.541-25.3906 104.541-35.2539Q104.541-45.1172 100.781-53.7842Q97.0215-62.4512 90.4297-69.0674Q83.8379-75.6836 75.1709-79.3945Q66.5039-83.1055 56.5918-83.1055Q46.7285-83.1055 38.0615-79.3945Q29.3945-75.6836 22.8271-69.0674Q16.2598-62.4512 12.5-53.7842Q8.74023-45.1172 8.74023-35.2539Q8.74023-25.3906 12.4756-16.7236Q16.2109-8.05664 22.8027-1.44043Q29.3945 5.17578 38.0859 8.88672Q46.7773 12.5977 56.5918 12.5977ZM81.8848-35.3516Q81.8848-34.5703 81.25-33.9844L62.5977-15.332Q62.0605-14.7949 61.3281-14.7949Q60.5469-14.7949 60.1074-15.2832Q59.668-15.7715 59.668-16.4551Q59.668-17.1875 60.3027-17.8223L69.9707-27.5391L76.2695-33.6914L68.8965-33.4961L33.1055-33.4961Q32.2754-33.4961 31.7627-34.0088Q31.25-34.5215 31.25-35.2539Q31.25-36.1328 31.7871-36.6455Q32.3242-37.1582 33.1055-37.1582L68.8965-37.1582L76.2695-36.9141L69.9707-43.1152L60.3027-52.832Q59.668-53.4668 59.668-54.1992Q59.668-54.8828 60.1074-55.3467Q60.5469-55.8105 61.3281-55.8105Q62.0605-55.8105 62.5977-55.2734L81.25-36.6211Q81.8848-36.0352 81.8848-35.3516Z"/>
  </g>
  <g id="Ultralight-M" transform="matrix(1 0 0 1 503.632 1126)">
   <path d="M56.0547 12.0605Q65.8203 12.0605 74.3896 8.37402Q82.959 4.6875 89.4775-1.83105Q95.9961-8.34961 99.707-16.9189Q103.418-25.4883 103.418-35.2539Q103.418-45.0195 99.707-53.5889Q95.9961-62.1582 89.4775-68.6768Q82.959-75.1953 74.3896-78.8818Q65.8203-82.5684 56.0547-82.5684Q46.2891-82.5684 37.7197-78.8818Q29.1504-75.1953 22.6562-68.6768Q16.1621-62.1582 12.4512-53.5889Q8.74023-45.0195 8.74023-35.2539Q8.74023-25.4883 12.4268-16.9189Q16.1133-8.34961 22.6318-1.83105Q29.1504 4.6875 37.7197 8.37402Q46.2891 12.0605 56.0547 12.0605ZM81.1523-35.3516Q81.1523-34.8633 80.8105-34.5215L61.6211-15.3809Q61.2305-14.9902 60.7422-14.9902Q60.2539-14.9902 59.9609-15.2832Q59.668-15.5762 59.668-16.0645Q59.668-16.5527 60.1562-17.041L70.8984-27.7832L77.1973-34.2285L70.8008-34.082L32.1777-34.082Q31.5918-34.082 31.25-34.4238Q30.9082-34.7656 30.9082-35.2539Q30.9082-35.9375 31.2744-36.2793Q31.6406-36.6211 32.1777-36.6211L70.8008-36.6211L77.2461-36.4258L70.8984-42.9199L60.1562-53.6621Q59.668-54.1992 59.668-54.6387Q59.668-55.0781 59.9609-55.3955Q60.2539-55.7129 60.7422-55.7129Q61.2305-55.7129 61.6211-55.2734L80.8105-36.1816Q81.1523-35.8398 81.1523-35.3516Z"/>
  </g>
  <g id="Black-S" transform="matrix(1 0 0 1 2884.57 696)">
   <path d="M48.8281 6.78711Q57.5195 6.78711 65.1123 3.51562Q72.7051 0.244141 78.4912-5.54199Q84.2773-11.3281 87.5488-18.9209Q90.8203-26.5137 90.8203-35.2051Q90.8203-43.8965 87.5488-51.4893Q84.2773-59.082 78.4912-64.8682Q72.7051-70.6543 65.1123-73.9258Q57.5195-77.1973 48.8281-77.1973Q40.1367-77.1973 32.5439-73.9258Q24.9512-70.6543 19.165-64.8682Q13.3789-59.082 10.1074-51.4893Q6.83594-43.8965 6.83594-35.2051Q6.83594-26.5137 10.1074-18.9209Q13.3789-11.3281 19.165-5.54199Q24.9512 0.244141 32.5439 3.51562Q40.1367 6.78711 48.8281 6.78711ZM70.6543-35.1562Q70.6543-31.8359 68.3594-29.7852L54.0527-16.7969Q52.1973-15.0879 49.9512-15.0879Q47.7539-15.0879 46.3867-16.5283Q45.0195-17.9688 45.0195-20.3125Q45.0195-22.9004 46.8262-24.2188L51.123-27.5879L54.1504-29.3457L46.875-28.7109L32.8125-28.7109Q30.2734-28.7109 28.6133-30.5908Q26.9531-32.4707 26.9531-35.1562Q26.9531-37.8906 28.6133-39.7461Q30.2734-41.6016 32.8125-41.6016L46.875-41.6016L54.1504-40.9668L50.8789-42.7734L46.8262-46.0938Q45.0195-47.5586 45.0195-50Q45.0195-52.3438 46.3867-53.7842Q47.7539-55.2246 49.9512-55.2246Q52.1973-55.2246 54.0527-53.5156L68.3594-40.5273Q70.6543-38.4766 70.6543-35.1562Z"/>
  </g>
  <g id="Heavy-S" transform="matrix(1 0 0 1 2588.47 696)">
   <path d="M48.1934 6.15234Q56.7871 6.15234 64.2578 2.92969Q71.7285-0.292969 77.4414-6.00586Q83.1543-11.7188 86.377-19.1895Q89.5996-26.6602 89.5996-35.2051Q89.5996-43.75 86.377-51.2451Q83.1543-58.7402 77.4414-64.4531Q71.7285-70.166 64.2334-73.3887Q56.7383-76.6113 48.1934-76.6113Q39.6484-76.6113 32.1777-73.3887Q24.707-70.166 18.9941-64.4531Q13.2812-58.7402 10.0586-51.2451Q6.83594-43.75 6.83594-35.2051Q6.83594-26.6602 10.0586-19.1895Q13.2812-11.7188 18.9941-6.00586Q24.707-0.292969 32.2021 2.92969Q39.6973 6.15234 48.1934 6.15234ZM69.6777-35.2051Q69.6777-32.3242 67.627-30.4688L53.6621-17.4805Q52.002-15.918 49.9512-15.918Q47.9492-15.918 46.6797-17.2607Q45.4102-18.6035 45.4102-20.7031Q45.4102-23.0469 47.0215-24.2676L51.3184-27.7832L54.7363-30.0293L47.0215-29.4922L31.9336-29.4922Q29.6387-29.4922 28.1494-31.1523Q26.6602-32.8125 26.6602-35.2051Q26.6602-37.6465 28.1494-39.2822Q29.6387-40.918 31.9336-40.918L47.0215-40.918L54.7363-40.332L51.123-42.5781L47.0215-46.0938Q45.4102-47.5098 45.4102-49.6582Q45.4102-51.8066 46.6797-53.125Q47.9492-54.4434 49.9512-54.4434Q52.002-54.4434 53.6621-52.9297L67.627-39.8926Q69.6777-38.0371 69.6777-35.2051Z"/>
  </g>
  <g id="Bold-S" transform="matrix(1 0 0 1 2292.42 696)">
   <path d="M47.5586 5.46875Q55.957 5.46875 63.3057 2.29492Q70.6543-0.878906 76.2695-6.51855Q81.8848-12.1582 85.083-19.5068Q88.2812-26.8555 88.2812-35.2539Q88.2812-43.6035 85.083-50.9766Q81.8848-58.3496 76.2695-63.9648Q70.6543-69.5801 63.2812-72.7539Q55.9082-75.9277 47.5098-75.9277Q39.1602-75.9277 31.7871-72.7539Q24.4141-69.5801 18.8232-63.9648Q13.2324-58.3496 10.0342-50.9766Q6.83594-43.6035 6.83594-35.2539Q6.83594-26.8555 10.0342-19.5068Q13.2324-12.1582 18.8477-6.51855Q24.4629-0.878906 31.8115 2.29492Q39.1602 5.46875 47.5586 5.46875ZM68.6523-35.2539Q68.6523-32.9102 66.8457-31.2012L53.2227-18.2129Q51.8555-16.8945 50-16.8945Q48.1934-16.8945 47.0459-18.0908Q45.8984-19.2871 45.8984-21.1914Q45.8984-23.1934 47.3145-24.3164L51.5625-28.0762L55.4199-30.8105L47.2656-30.3223L31.0059-30.3223Q29.0039-30.3223 27.6855-31.7383Q26.3672-33.1543 26.3672-35.2539Q26.3672-37.3535 27.6855-38.7451Q29.0039-40.1367 31.0059-40.1367L47.2656-40.1367L55.4199-39.6484L51.416-42.4316L47.3145-46.1426Q45.8984-47.4121 45.8984-49.3164Q45.8984-51.1719 47.0459-52.3682Q48.1934-53.5645 50-53.5645Q51.8555-53.5645 53.2227-52.2461L66.8457-39.2578Q68.6523-37.5488 68.6523-35.2539Z"/>
  </g>
  <g id="Semibold-S" transform="matrix(1 0 0 1 1996.2 696)">
   <path d="M47.0703 4.98047Q55.3711 4.98047 62.6465 1.85547Q69.9219-1.26953 75.4639-6.86035Q81.0059-12.4512 84.1553-19.7266Q87.3047-27.002 87.3047-35.2539Q87.3047-43.5059 84.1553-50.7812Q81.0059-58.0566 75.4395-63.623Q69.873-69.1895 62.5977-72.3389Q55.3223-75.4883 47.0215-75.4883Q38.7695-75.4883 31.4941-72.3389Q24.2188-69.1895 18.6768-63.623Q13.1348-58.0566 9.98535-50.7812Q6.83594-43.5059 6.83594-35.2539Q6.83594-27.002 9.98535-19.7266Q13.1348-12.4512 18.7012-6.86035Q24.2676-1.26953 31.543 1.85547Q38.8184 4.98047 47.0703 4.98047ZM67.9199-35.2539Q67.9199-33.252 66.3086-31.7383L52.9297-18.75Q51.709-17.5293 50.0488-17.5293Q48.3887-17.5293 47.3145-18.6523Q46.2402-19.7754 46.2402-21.4844Q46.2402-23.291 47.4609-24.3652L51.709-28.2227L55.9082-31.3477L47.4121-30.9082L30.3223-30.9082Q28.5156-30.9082 27.3438-32.1533Q26.1719-33.3984 26.1719-35.2539Q26.1719-37.1094 27.3438-38.3545Q28.5156-39.5996 30.3223-39.5996L47.4121-39.5996L55.8594-39.1113L51.6113-42.2852L47.4609-46.1426Q46.2402-47.3633 46.2402-49.0234Q46.2402-50.7324 47.3145-51.8311Q48.3887-52.9297 50.0488-52.9297Q51.7578-52.9297 52.9297-51.8066L66.3086-38.7695Q67.9199-37.207 67.9199-35.2539Z"/>
  </g>
  <g id="Medium-S" transform="matrix(1 0 0 1 1699.83 696)">
   <path d="M46.7285 4.63867Q54.9316 4.63867 62.1338 1.51367Q69.3359-1.61133 74.8535-7.12891Q80.3711-12.6465 83.4961-19.8486Q86.6211-27.0508 86.6211-35.2539Q86.6211-43.4082 83.4961-50.6348Q80.3711-57.8613 74.8291-63.3789Q69.2871-68.8965 62.085-71.9971Q54.8828-75.0977 46.6797-75.0977Q38.4766-75.0977 31.2744-71.9971Q24.0723-68.8965 18.5791-63.3789Q13.0859-57.8613 9.96094-50.6348Q6.83594-43.4082 6.83594-35.2539Q6.83594-27.0508 9.96094-19.8486Q13.0859-12.6465 18.6035-7.12891Q24.1211-1.61133 31.3232 1.51367Q38.5254 4.63867 46.7285 4.63867ZM67.334-35.2539Q67.334-33.5449 65.8691-32.1289L52.6855-19.1406Q51.5625-18.0664 50-18.0664Q48.4375-18.0664 47.4365-19.0918Q46.4355-20.1172 46.4355-21.7285Q46.4355-23.3398 47.5586-24.3652L51.8066-28.3691L56.2012-31.7383L47.5098-31.3477L29.7852-31.3477Q28.125-31.3477 27.0508-32.4707Q25.9766-33.5938 25.9766-35.2539Q25.9766-36.9629 27.0508-38.0859Q28.125-39.209 29.7852-39.209L47.5098-39.209L56.2012-38.7695L51.7578-42.1875L47.5586-46.1914Q46.4355-47.3145 46.4355-48.8281Q46.4355-50.4395 47.4365-51.4404Q48.4375-52.4414 50-52.4414Q51.6113-52.4414 52.6855-51.416L65.8691-38.4277Q67.334-36.9629 67.334-35.2539Z"/>
  </g>
  <g id="Regular-S" transform="matrix(1 0 0 1 1403.58 696)">
   <path d="M46.2402 4.15039Q54.3457 4.15039 61.4746 1.07422Q68.6035-2.00195 74.0479-7.4707Q79.4922-12.9395 82.5928-20.0684Q85.6934-27.1973 85.6934-35.2539Q85.6934-43.3105 82.5928-50.4395Q79.4922-57.5684 74.0234-63.0371Q68.5547-68.5059 61.4258-71.582Q54.2969-74.6582 46.1914-74.6582Q38.1348-74.6582 31.0059-71.582Q23.877-68.5059 18.457-63.0371Q13.0371-57.5684 9.93652-50.4395Q6.83594-43.3105 6.83594-35.2539Q6.83594-27.1973 9.93652-20.0684Q13.0371-12.9395 18.4814-7.4707Q23.9258-2.00195 31.0547 1.07422Q38.1836 4.15039 46.2402 4.15039ZM66.6504-35.3027Q66.6504-33.9355 65.332-32.6172L52.3926-19.6289Q51.4648-18.7012 50.0488-18.7012Q48.6328-18.7012 47.7051-19.6533Q46.7773-20.6055 46.7773-22.0215Q46.7773-23.4375 47.7539-24.4141L51.9531-28.5156L56.6895-32.2754L47.6562-31.9336L29.1504-31.9336Q27.6855-31.9336 26.7334-32.8857Q25.7812-33.8379 25.7812-35.3027Q25.7812-36.7676 26.7334-37.7197Q27.6855-38.6719 29.1504-38.6719L47.6562-38.6719L56.6406-38.2812L51.9531-42.041L47.7539-46.1914Q46.7773-47.2656 46.7773-48.584Q46.7773-50 47.7051-50.9277Q48.6328-51.8555 50.0488-51.8555Q51.5137-51.8555 52.3926-50.9766L65.332-37.9395Q66.6504-36.6211 66.6504-35.3027Z"/>
  </g>
  <g id="Light-S" transform="matrix(1 0 0 1 1107.6 696)">
   <path d="M45.5078 3.41797Q53.4668 3.41797 60.4736 0.415039Q67.4805-2.58789 72.8271-7.95898Q78.1738-13.3301 81.2012-20.3125Q84.2285-27.2949 84.2285-35.2539Q84.2285-43.2129 81.2012-50.1953Q78.1738-57.1777 72.8027-62.5488Q67.4316-67.9199 60.4492-70.9229Q53.4668-73.9258 45.459-73.9258Q37.5488-73.9258 30.542-70.9229Q23.5352-67.9199 18.2129-62.5488Q12.8906-57.1777 9.86328-50.1953Q6.83594-43.2129 6.83594-35.2539Q6.83594-27.2949 9.86328-20.3125Q12.8906-13.3301 18.2373-7.95898Q23.584-2.58789 30.5908 0.415039Q37.5977 3.41797 45.5078 3.41797ZM65.6738-35.3027Q65.6738-34.2773 64.6973-33.252L51.123-19.6777Q50.3906-18.8965 49.2676-18.8965Q48.1934-18.8965 47.4854-19.6289Q46.7773-20.3613 46.7773-21.4844Q46.7773-22.5586 47.5586-23.3398L53.0762-28.8086L57.8613-32.959L50.0977-32.7148L27.9297-32.7148Q26.7578-32.7148 26.0254-33.4473Q25.293-34.1797 25.293-35.3027Q25.293-36.4746 26.0254-37.207Q26.7578-37.9395 27.9297-37.9395L50.0977-37.9395L57.8613-37.6465L53.0762-41.7969L47.5586-47.3145Q46.7773-48.1445 46.7773-49.1699Q46.7773-50.2441 47.4854-50.9766Q48.1934-51.709 49.2676-51.709Q50.3906-51.709 51.123-50.9766L64.6973-37.3535Q65.6738-36.3281 65.6738-35.3027Z"/>
  </g>
  <g id="Thin-S" transform="matrix(1 0 0 1 811.867 696)">
   <path d="M44.5312 2.44141Q52.3438 2.44141 59.1553-0.488281Q65.9668-3.41797 71.1914-8.64258Q76.416-13.8672 79.3457-20.6787Q82.2754-27.4902 82.2754-35.2539Q82.2754-43.0176 79.3457-49.8291Q76.416-56.6406 71.1914-61.8652Q65.9668-67.0898 59.1553-70.0195Q52.3438-72.9492 44.5312-72.9492Q36.7676-72.9492 29.9316-70.0195Q23.0957-67.0898 17.9199-61.8652Q12.7441-56.6406 9.79004-49.8291Q6.83594-43.0176 6.83594-35.2539Q6.83594-27.4902 9.79004-20.6787Q12.7441-13.8672 17.9199-8.64258Q23.0957-3.41797 29.9316-0.488281Q36.7676 2.44141 44.5312 2.44141ZM64.4043-35.3027Q64.4043-34.6191 63.8672-34.082L49.4141-19.6289Q48.877-19.1406 48.2422-19.1406Q47.5586-19.1406 47.1436-19.5801Q46.7285-20.0195 46.7285-20.6543Q46.7285-21.3379 47.2656-21.875L54.4922-29.1016L59.375-33.7891L53.2715-33.6426L26.2695-33.6426Q25.5371-33.6426 25.0732-34.1064Q24.6094-34.5703 24.6094-35.2539Q24.6094-35.9863 25.0732-36.4502Q25.5371-36.9141 26.2695-36.9141L53.2715-36.9141L59.4238-36.7188L54.4922-41.4551L47.2656-48.6816Q46.7285-49.2676 46.7285-49.9023Q46.7285-50.5371 47.1436-50.9766Q47.5586-51.416 48.2422-51.416Q48.877-51.416 49.4141-50.9277L63.8672-36.4746Q64.4043-35.9375 64.4043-35.3027Z"/>
  </g>
  <g id="Ultralight-S" transform="matrix(1 0 0 1 515.644 696)">
   <path d="M44.043 1.95312Q51.7578 1.95312 58.4717-0.927734Q65.1855-3.80859 70.3369-8.95996Q75.4883-14.1113 78.3936-20.8252Q81.2988-27.5391 81.2988-35.2539Q81.2988-42.9688 78.3936-49.6826Q75.4883-56.3965 70.3369-61.5479Q65.1855-66.6992 58.4717-69.5801Q51.7578-72.4609 44.043-72.4609Q36.377-72.4609 29.6387-69.5801Q22.9004-66.6992 17.7734-61.5479Q12.6465-56.3965 9.74121-49.6826Q6.83594-42.9688 6.83594-35.2539Q6.83594-27.5391 9.74121-20.8252Q12.6465-14.1113 17.7734-8.95996Q22.9004-3.80859 29.6387-0.927734Q36.377 1.95312 44.043 1.95312ZM63.7207-35.3027Q63.7207-34.8633 63.4277-34.5215L48.5352-19.6777Q48.1445-19.2871 47.7051-19.2871Q47.2656-19.2871 46.9971-19.5801Q46.7285-19.873 46.7285-20.3125Q46.7285-20.752 47.1191-21.1426L55.2734-29.2969L60.1562-34.2773L54.8828-34.1797L25.3906-34.1797Q24.9023-34.1797 24.585-34.4971Q24.2676-34.8145 24.2676-35.2539Q24.2676-35.8398 24.585-36.1572Q24.9023-36.4746 25.3906-36.4746L54.8828-36.4746L60.2051-36.2793L55.2734-41.3086L47.1191-49.4629Q46.7285-49.8535 46.7285-50.293Q46.7285-50.7324 46.9971-51.0254Q47.2656-51.3184 47.7051-51.3184Q48.1445-51.3184 48.5352-50.9277L63.4277-36.084Q63.7207-35.7422 63.7207-35.3027Z"/>
  </g>
 </g>
</svg>
